<?xml version="1.0" encoding="utf-8"?>
<!-- Generator: Adobe Illustrator 24.0.0, SVG Export Plug-In . SVG Version: 6.00 Build 0)  -->
<svg version="1.1" id="Layer_1" xmlns="http://www.w3.org/2000/svg" xmlns:xlink="http://www.w3.org/1999/xlink" x="0px" y="0px"
	 viewBox="0 0 300 43.66" style="enable-background:new 0 0 300 43.66;" xml:space="preserve">
<style type="text/css">
	.st0{fill:#353A4B;}
	.st1{fill:#1E59A8;}
</style>
<g>
	<path class="st0" d="M16.62,12.71c1.78,0,3.41,0.29,4.89,0.88c1.48,0.59,2.75,1.43,3.81,2.54c1.06,1.11,1.89,2.44,2.48,4.01
		c0.59,1.56,0.88,3.32,0.88,5.28v17.59h-8.8V27.04c0-1.95-0.51-3.47-1.53-4.56c-1.02-1.09-2.36-1.63-4.01-1.63
		c-1.65,0-2.99,0.54-4.01,1.63c-1.02,1.09-1.53,2.61-1.53,4.56v15.96H0V13.03h6.52l1.3,2.93c0.69-0.61,1.5-1.15,2.41-1.63
		c0.78-0.39,1.72-0.76,2.8-1.11C14.12,12.88,15.31,12.71,16.62,12.71z"/>
	<path class="st0" d="M33.87,4.89c0-1.3,0.49-2.44,1.47-3.42S37.46,0,38.76,0s2.44,0.49,3.42,1.47s1.47,2.12,1.47,3.42
		s-0.49,2.44-1.47,3.42s-2.12,1.47-3.42,1.47s-2.44-0.49-3.42-1.47S33.87,6.19,33.87,4.89z M43,43.01h-8.8V13.03H43V43.01z"/>
	<path class="st0" d="M65.1,12.71c1.78,0,3.41,0.29,4.89,0.88c1.48,0.59,2.75,1.43,3.81,2.54c1.06,1.11,1.89,2.44,2.48,4.01
		c0.59,1.56,0.88,3.32,0.88,5.28v17.59h-8.8V27.04c0-1.95-0.51-3.47-1.53-4.56c-1.02-1.09-2.36-1.63-4.01-1.63
		c-1.65,0-2.99,0.54-4.01,1.63c-1.02,1.09-1.53,2.61-1.53,4.56v15.96h-8.8V13.03H55l1.3,2.93c0.69-0.61,1.5-1.15,2.41-1.63
		c0.78-0.39,1.72-0.76,2.8-1.11C62.6,12.88,63.79,12.71,65.1,12.71z"/>
	<path class="st1" d="M90.77,33.56c0.26,0.39,0.61,0.72,1.04,0.98c0.35,0.26,0.81,0.49,1.4,0.68c0.59,0.2,1.29,0.29,2.12,0.29
		c1.65,0,3.01-0.48,4.07-1.43c1.07-0.96,1.77-2,2.12-3.13H81c-0.04-0.3-0.09-0.63-0.13-0.98c-0.04-0.3-0.09-0.62-0.13-0.94
		c-0.04-0.33-0.07-0.66-0.07-1.01c0-2.35,0.38-4.48,1.14-6.42c0.76-1.93,1.8-3.58,3.13-4.95c1.33-1.37,2.88-2.42,4.66-3.16
		c1.78-0.74,3.69-1.11,5.73-1.11c2.13,0,4.12,0.4,5.96,1.21c1.85,0.8,3.46,1.91,4.85,3.32c1.39,1.41,2.49,3.06,3.29,4.95
		c0.8,1.89,1.21,3.94,1.21,6.16c0,2.22-0.4,4.27-1.21,6.16c-0.8,1.89-1.89,3.54-3.26,4.95c-1.37,1.41-2.95,2.52-4.76,3.32
		c-1.8,0.8-3.72,1.21-5.77,1.21c-1.95,0-3.7-0.26-5.25-0.78c-1.54-0.52-2.9-1.23-4.07-2.12c-1.17-0.89-2.15-1.9-2.93-3.03
		c-0.78-1.13-1.37-2.3-1.76-3.52L90.77,33.56z M91.26,21.99c-1.06,0.98-1.77,2.12-2.12,3.42h12.38c-0.35-1.3-1.05-2.44-2.12-3.42
		c-1.06-0.98-2.42-1.47-4.07-1.47C93.68,20.53,92.33,21.01,91.26,21.99z"/>
	<path class="st0" d="M128.47,12.38c1.48,0,2.82,0.16,4.04,0.49c1.22,0.33,2.3,0.77,3.26,1.34c0.96,0.57,1.79,1.2,2.51,1.89
		c0.72,0.7,1.34,1.41,1.86,2.15c1.22,1.74,2.11,3.69,2.67,5.86l-8.8,0.65c-0.3-0.78-0.7-1.48-1.17-2.09
		c-0.43-0.52-1.01-1.01-1.73-1.47c-0.72-0.46-1.6-0.68-2.64-0.68c-1.82,0-3.37,0.67-4.63,2.02c-1.26,1.35-1.89,3.17-1.89,5.47
		c0,2.3,0.63,4.13,1.89,5.47c1.26,1.35,2.8,2.02,4.63,2.02c1.04,0,1.92-0.22,2.64-0.65c0.72-0.43,1.29-0.91,1.73-1.43
		c0.48-0.61,0.87-1.32,1.17-2.15l8.8,0.65c-0.57,2.17-1.46,4.13-2.67,5.86c-0.52,0.74-1.14,1.46-1.86,2.15
		c-0.72,0.7-1.55,1.33-2.51,1.89c-0.96,0.57-2.04,1.01-3.26,1.34c-1.22,0.33-2.56,0.49-4.04,0.49c-2.13,0-4.12-0.4-5.96-1.21
		c-1.85-0.8-3.46-1.91-4.85-3.32c-1.39-1.41-2.49-3.06-3.29-4.95c-0.8-1.89-1.21-3.94-1.21-6.16c0-2.22,0.4-4.27,1.21-6.16
		c0.8-1.89,1.9-3.54,3.29-4.95c1.39-1.41,3.01-2.52,4.85-3.32C124.36,12.78,126.34,12.38,128.47,12.38z"/>
	<path class="st0" d="M145.55,28.02c0-2.22,0.4-4.27,1.21-6.16c0.8-1.89,1.9-3.54,3.29-4.95c1.39-1.41,3.01-2.52,4.85-3.32
		c1.85-0.8,3.83-1.21,5.96-1.21c2.13,0,4.12,0.4,5.96,1.21c1.85,0.8,3.46,1.91,4.85,3.32c1.39,1.41,2.49,3.06,3.29,4.95
		c0.8,1.89,1.21,3.94,1.21,6.16c0,2.22-0.4,4.27-1.21,6.16c-0.8,1.89-1.9,3.54-3.29,4.95c-1.39,1.41-3.01,2.52-4.85,3.32
		c-1.85,0.8-3.83,1.21-5.96,1.21c-2.13,0-4.12-0.4-5.96-1.21c-1.85-0.8-3.46-1.91-4.85-3.32c-1.39-1.41-2.49-3.06-3.29-4.95
		C145.95,32.29,145.55,30.23,145.55,28.02z M167.38,28.02c0-2.3-0.63-4.13-1.89-5.47c-1.26-1.35-2.8-2.02-4.63-2.02
		c-1.82,0-3.37,0.67-4.63,2.02c-1.26,1.35-1.89,3.17-1.89,5.47c0,2.3,0.63,4.13,1.89,5.47c1.26,1.35,2.8,2.02,4.63,2.02
		c1.82,0,3.37-0.67,4.63-2.02C166.75,32.15,167.38,30.32,167.38,28.02z"/>
	<path class="st0" d="M196.83,12.71c1.78,0,3.41,0.29,4.89,0.88c1.48,0.59,2.75,1.43,3.81,2.54c1.06,1.11,1.89,2.44,2.48,4.01
		c0.59,1.56,0.88,3.32,0.88,5.28v17.59h-8.8V27.04c0-1.95-0.51-3.47-1.53-4.56c-1.02-1.09-2.36-1.63-4.01-1.63
		c-1.65,0-2.99,0.54-4.01,1.63c-1.02,1.09-1.53,2.61-1.53,4.56v15.96h-8.8V13.03h6.52l1.3,2.93c0.69-0.61,1.5-1.15,2.41-1.63
		c0.78-0.39,1.72-0.76,2.8-1.11C194.33,12.88,195.52,12.71,196.83,12.71z"/>
	<path class="st0" d="M216.45,21.18h-4.56v-7.49h2.28c2.39,0,3.58-1.19,3.58-3.58V5.86h7.49v7.17h6.92v8.15h-6.92v9.77
		c0,1.3,0.37,2.34,1.11,3.1c0.74,0.76,1.67,1.14,2.8,1.14c0.35,0,0.65-0.01,0.91-0.03c0.26-0.02,0.5-0.05,0.72-0.1
		c0.22-0.04,0.43-0.11,0.65-0.2v7.82c-0.35,0.13-0.74,0.24-1.17,0.33c-0.87,0.22-1.89,0.33-3.06,0.33c-3.43,0-6.08-0.94-7.95-2.83
		c-1.87-1.89-2.8-4.64-2.8-8.24V21.18z"/>
	<path class="st0" d="M251.6,12.71c0.39,0,0.75,0.02,1.08,0.07c0.33,0.04,0.6,0.09,0.81,0.13c0.26,0.04,0.5,0.09,0.72,0.13v9.12
		c-0.26-0.09-0.56-0.2-0.91-0.33c-0.3-0.09-0.65-0.16-1.04-0.23c-0.39-0.06-0.83-0.1-1.3-0.1c-1.65,0-2.99,0.54-4.01,1.63
		c-1.02,1.09-1.53,2.61-1.53,4.56v15.31h-8.8V13.03h6.52l1.3,3.26c0.52-0.65,1.15-1.24,1.89-1.76c0.61-0.48,1.36-0.9,2.25-1.27
		C249.46,12.89,250.47,12.71,251.6,12.71z"/>
	<path class="st0" d="M256.59,28.02c0-2.22,0.4-4.27,1.21-6.16c0.8-1.89,1.9-3.54,3.29-4.95c1.39-1.41,3.01-2.52,4.85-3.32
		c1.85-0.8,3.83-1.21,5.96-1.21c2.13,0,4.12,0.4,5.96,1.21c1.85,0.8,3.46,1.91,4.85,3.32c1.39,1.41,2.49,3.06,3.29,4.95
		c0.8,1.89,1.21,3.94,1.21,6.16c0,2.22-0.4,4.27-1.21,6.16c-0.8,1.89-1.9,3.54-3.29,4.95c-1.39,1.41-3.01,2.52-4.85,3.32
		c-1.85,0.8-3.83,1.21-5.96,1.21c-2.13,0-4.12-0.4-5.96-1.21c-1.85-0.8-3.46-1.91-4.85-3.32c-1.39-1.41-2.49-3.06-3.29-4.95
		C256.99,32.29,256.59,30.23,256.59,28.02z M278.42,28.02c0-2.3-0.63-4.13-1.89-5.47c-1.26-1.35-2.8-2.02-4.63-2.02
		c-1.82,0-3.37,0.67-4.63,2.02c-1.26,1.35-1.89,3.17-1.89,5.47c0,2.3,0.63,4.13,1.89,5.47c1.26,1.35,2.8,2.02,4.63,2.02
		c1.82,0,3.37-0.67,4.63-2.02C277.79,32.15,278.42,30.32,278.42,28.02z"/>
	<path class="st0" d="M300,43.01h-8.8V1.96h8.8V43.01z"/>
</g>
</svg>
