<?xml version="1.0" encoding="utf-8"?>
<!-- Generator: Adobe Illustrator 24.0.0, SVG Export Plug-In . SVG Version: 6.00 Build 0)  -->
<svg version="1.1" id="Layer_1" xmlns="http://www.w3.org/2000/svg" xmlns:xlink="http://www.w3.org/1999/xlink" x="0px" y="0px"
	 viewBox="0 0 300 46.91" style="enable-background:new 0 0 300 46.91;" xml:space="preserve">
<style type="text/css">
	.st0{fill:url(#SVGID_1_);}
	.st1{fill:#684990;}
</style>
<g>
	<g>
		<g>
			<linearGradient id="SVGID_1_" gradientUnits="userSpaceOnUse" x1="121.533" y1="30.39" x2="154.2884" y2="30.39">
				<stop  offset="0" style="stop-color:#684990"/>
				<stop  offset="0" style="stop-color:#6B4990"/>
				<stop  offset="0.2261" style="stop-color:#83448E"/>
				<stop  offset="0.4978" style="stop-color:#99408C"/>
				<stop  offset="0.7587" style="stop-color:#A63E8B"/>
				<stop  offset="0.9948" style="stop-color:#AB3D8B"/>
			</linearGradient>
			<path class="st0" d="M121.57,39.99l-0.04-14.94c0-0.73,0.75-1.23,1.42-0.94l13.6,5.81c0.38,0.16,0.62,0.53,0.62,0.94l0.04,14.94
				c0,0.73-0.75,1.23-1.42,0.94l-13.6-5.81C121.81,40.77,121.57,40.4,121.57,39.99z M152.72,25.76l-12.55,5.43l0.03,13.82
				l12.55-5.43L152.72,25.76 M153.23,23.95c0.54,0,1.02,0.43,1.02,1.02l0.04,14.94c0,0.41-0.24,0.78-0.62,0.94l-13.57,5.88
				c-0.13,0.06-0.27,0.09-0.4,0.09c-0.54,0-1.02-0.43-1.02-1.02l-0.04-14.94c0-0.41,0.24-0.78,0.62-0.94l13.57-5.88
				C152.96,23.98,153.09,23.95,153.23,23.95L153.23,23.95z M137.81,15.54l-13.02,5.81l13.04,5.75l13.02-5.81L137.81,15.54
				 M137.81,13.96c0.14,0,0.28,0.03,0.41,0.09l14.31,6.31c0.81,0.36,0.81,1.51,0,1.87l-14.28,6.37c-0.13,0.06-0.27,0.09-0.41,0.09
				c-0.14,0-0.28-0.03-0.41-0.09l-14.31-6.31c-0.81-0.36-0.81-1.51,0-1.87l14.28-6.37C137.53,13.99,137.67,13.96,137.81,13.96
				L137.81,13.96z"/>
		</g>
		<g>
			<path class="st1" d="M18.12,13.86c1.94,0,3.72,0.32,5.33,0.96c1.61,0.64,3,1.56,4.16,2.77c1.16,1.21,2.06,2.66,2.7,4.37
				c0.64,1.71,0.96,3.63,0.96,5.76v19.19h-9.59V29.5c0-2.13-0.56-3.79-1.67-4.98c-1.11-1.18-2.57-1.78-4.37-1.78
				s-3.26,0.59-4.37,1.78c-1.11,1.19-1.67,2.84-1.67,4.98v17.41H0V14.22h7.11l1.42,3.2c0.76-0.66,1.63-1.25,2.63-1.78
				c0.85-0.43,1.87-0.83,3.06-1.21C15.4,14.05,16.7,13.86,18.12,13.86z"/>
			<path class="st1" d="M33.89,5.33c0-1.42,0.53-2.66,1.6-3.73C36.56,0.53,37.8,0,39.22,0s2.66,0.53,3.73,1.6
				c1.07,1.07,1.6,2.31,1.6,3.73S44.02,8,42.95,9.06c-1.07,1.07-2.31,1.6-3.73,1.6s-2.66-0.53-3.73-1.6
				C34.42,8,33.89,6.75,33.89,5.33z M43.84,46.91h-9.6V13.86h9.6V46.91z"/>
			<path class="st1" d="M64.93,13.86c1.94,0,3.72,0.32,5.33,0.96c1.61,0.64,3,1.56,4.16,2.77c1.16,1.21,2.06,2.66,2.7,4.37
				c0.64,1.71,0.96,3.63,0.96,5.76v19.19h-9.59V29.5c0-2.13-0.56-3.79-1.67-4.98c-1.11-1.18-2.57-1.78-4.37-1.78
				s-3.26,0.59-4.37,1.78c-1.11,1.19-1.67,2.84-1.67,4.98v17.41h-9.6V14.22h7.11l1.42,3.2c0.76-0.66,1.63-1.25,2.63-1.78
				c0.85-0.43,1.87-0.83,3.06-1.21C62.21,14.05,63.51,13.86,64.93,13.86z"/>
			<path class="st1" d="M111.69,36.92c-0.41,1.29-1.03,2.53-1.86,3.72c-0.83,1.19-1.86,2.26-3.1,3.2s-2.67,1.69-4.3,2.24
				c-1.63,0.55-3.48,0.83-5.54,0.83c-2.16,0-4.19-0.43-6.09-1.27c-1.91-0.85-3.58-2.02-5.03-3.51c-1.45-1.49-2.59-3.24-3.44-5.23
				c-0.85-2-1.27-4.17-1.27-6.51c0-2.34,0.42-4.51,1.27-6.51c0.85-2,2.01-3.74,3.48-5.23c1.47-1.49,3.18-2.66,5.13-3.51
				c1.95-0.85,4.05-1.27,6.3-1.27c2.16,0,4.18,0.39,6.06,1.17c1.88,0.78,3.52,1.89,4.92,3.34c1.4,1.45,2.5,3.19,3.3,5.23
				c0.8,2.04,1.21,4.3,1.21,6.78c0,0.37-0.02,0.72-0.07,1.07c-0.05,0.34-0.09,0.68-0.14,1c-0.05,0.37-0.09,0.71-0.14,1.03H90.69
				c0.37,1.19,1.11,2.3,2.24,3.3c1.12,1.01,2.56,1.52,4.3,1.52c0.87,0,1.62-0.1,2.24-0.31c0.62-0.21,1.11-0.45,1.48-0.72
				c0.46-0.28,0.83-0.62,1.1-1.03L111.69,36.92z M97.75,22.39c-1.8,0-3.28,0.53-4.44,1.6c-1.16,1.07-1.93,2.31-2.31,3.73h13.5
				c-0.38-1.42-1.15-2.67-2.31-3.73C101.03,22.92,99.55,22.39,97.75,22.39z"/>
			<path class="st1" d="M172.1,35.89c0.18,1.06,0.62,1.89,1.31,2.51c0.69,0.62,1.63,0.93,2.82,0.93c1.19,0,2.12-0.29,2.79-0.86
				c0.67-0.57,1-1.21,1-1.89c0-0.55-0.4-1-1.21-1.34c-0.8-0.34-1.8-0.69-3-1.03c-1.19-0.34-2.49-0.75-3.89-1.21
				c-1.4-0.46-2.7-1.07-3.89-1.82c-1.19-0.76-2.19-1.76-3-3c-0.8-1.24-1.21-2.8-1.21-4.68c0-1.29,0.28-2.51,0.83-3.68
				c0.55-1.17,1.34-2.19,2.38-3.06c1.03-0.87,2.3-1.57,3.79-2.1c1.49-0.53,3.18-0.79,5.06-0.79c4.13,0,7.28,0.92,9.44,2.76
				c2.16,1.84,3.49,4.13,3.99,6.89l-8.95,0.69c-0.18-0.69-0.6-1.32-1.24-1.89c-0.64-0.57-1.49-0.86-2.55-0.86
				c-1.06,0-1.84,0.23-2.34,0.69c-0.51,0.46-0.76,1.03-0.76,1.72c0,0.6,0.4,1.06,1.21,1.38c0.8,0.32,1.8,0.65,3,1
				c1.19,0.34,2.49,0.75,3.89,1.21c1.4,0.46,2.7,1.07,3.89,1.82c1.19,0.76,2.19,1.76,3,3c0.8,1.24,1.21,2.8,1.21,4.68
				c0,1.29-0.29,2.53-0.86,3.72c-0.58,1.19-1.41,2.26-2.51,3.2c-1.1,0.94-2.44,1.69-4.03,2.24c-1.59,0.55-3.36,0.83-5.34,0.83
				c-4.32,0-7.56-0.94-9.74-2.82c-2.18-1.88-3.52-4.38-4.03-7.51L172.1,35.89z"/>
			<path class="st1" d="M282.44,35.89c0.18,1.06,0.62,1.89,1.31,2.51c0.69,0.62,1.63,0.93,2.82,0.93c1.19,0,2.12-0.29,2.79-0.86
				c0.67-0.57,1-1.21,1-1.89c0-0.55-0.4-1-1.21-1.34c-0.8-0.34-1.8-0.69-3-1.03c-1.19-0.34-2.49-0.75-3.89-1.21
				c-1.4-0.46-2.7-1.07-3.89-1.82c-1.19-0.76-2.19-1.76-3-3c-0.8-1.24-1.21-2.8-1.21-4.68c0-1.29,0.28-2.51,0.83-3.68
				c0.55-1.17,1.34-2.19,2.38-3.06c1.03-0.87,2.3-1.57,3.79-2.1c1.49-0.53,3.18-0.79,5.06-0.79c4.13,0,7.28,0.92,9.44,2.76
				c2.16,1.84,3.49,4.13,3.99,6.89l-8.95,0.69c-0.18-0.69-0.6-1.32-1.24-1.89c-0.64-0.57-1.49-0.86-2.55-0.86
				c-1.06,0-1.84,0.23-2.34,0.69c-0.51,0.46-0.76,1.03-0.76,1.72c0,0.6,0.4,1.06,1.21,1.38c0.8,0.32,1.8,0.65,3,1
				c1.19,0.34,2.49,0.75,3.89,1.21c1.4,0.46,2.7,1.07,3.89,1.82c1.19,0.76,2.19,1.76,3,3c0.8,1.24,1.21,2.8,1.21,4.68
				c0,1.29-0.29,2.53-0.86,3.72c-0.58,1.19-1.41,2.26-2.51,3.2c-1.1,0.94-2.44,1.69-4.03,2.24c-1.59,0.55-3.36,0.83-5.34,0.83
				c-4.32,0-7.56-0.94-9.74-2.82c-2.18-1.88-3.52-4.38-4.03-7.51L282.44,35.89z"/>
			<path class="st1" d="M212.7,46.89l-10.48-15.1v15.11h-9.6V0h9.6v26.82l8.88-12.97h11.02l-11.02,15.45l12.61,17.58H212.7z"/>
			<path class="st1" d="M236.28,46.91h-9.6V13.86h9.6V46.91z"/>
			<path class="st1" d="M257.37,13.86c1.94,0,3.72,0.32,5.33,0.96c1.61,0.64,3,1.56,4.16,2.77c1.16,1.21,2.06,2.66,2.7,4.37
				c0.64,1.71,0.96,3.63,0.96,5.76v19.19h-9.59V29.49c0-2.13-0.56-3.79-1.67-4.98c-1.11-1.18-2.57-1.78-4.37-1.78
				s-3.26,0.59-4.37,1.78c-1.11,1.19-1.67,2.84-1.67,4.98v17.41h-9.6V14.21h7.11l1.42,3.2c0.76-0.66,1.63-1.25,2.63-1.78
				c0.85-0.43,1.87-0.83,3.06-1.21C254.65,14.05,255.95,13.86,257.37,13.86z"/>
		</g>
	</g>
	<path class="st1" d="M226.15,5.33c0-1.42,0.53-2.66,1.6-3.73c1.07-1.07,2.31-1.6,3.73-1.6c1.42,0,2.66,0.53,3.73,1.6
		c1.07,1.07,1.6,2.31,1.6,3.73s-0.53,2.66-1.6,3.73c-1.07,1.07-2.31,1.6-3.73,1.6c-1.42,0-2.66-0.53-3.73-1.6
		C226.68,8,226.15,6.75,226.15,5.33z"/>
</g>
</svg>
