<?xml version="1.0" encoding="utf-8"?>
<!-- Generator: Adobe Illustrator 24.0.0, SVG Export Plug-In . SVG Version: 6.00 Build 0)  -->
<svg version="1.1" id="Layer_1" xmlns="http://www.w3.org/2000/svg" xmlns:xlink="http://www.w3.org/1999/xlink" x="0px" y="0px"
	 viewBox="0 0 300 109.9" style="enable-background:new 0 0 300 109.9;" xml:space="preserve">
<style type="text/css">
	.st0{fill:#2C2C2C;}
	.st1{fill:#ED2E39;}
	.st2{fill:#FFFFFF;}
	.st3{fill:#00693D;}
</style>
<g>
	<g>
		<g>
			<g>
				<path class="st0" d="M-0.06,0.09h10.72v86.53H-0.06V0.09z"/>
				<path class="st0" d="M72.46,70.53c0,6.09,0.12,11.46,0.49,16.09h-9.51l-0.61-9.63h-0.24c-2.8,4.75-9.02,10.97-19.5,10.97
					c-9.26,0-20.35-5.12-20.35-25.84V27.63h10.72v32.66c0,11.21,3.41,18.77,13.16,18.77c7.19,0,12.19-5,14.14-9.75
					c0.61-1.58,0.97-3.53,0.97-5.48v-36.2h10.72V70.53z"/>
				<path class="st0" d="M81.36,75.65c3.17,2.07,8.77,4.26,14.14,4.26c7.8,0,11.46-3.9,11.46-8.77c0-5.12-3.05-7.92-10.97-10.85
					c-10.6-3.78-15.6-9.63-15.6-16.7c0-9.51,7.68-17.31,20.35-17.31c5.97,0,11.21,1.71,14.5,3.66l-2.68,7.8
					c-2.32-1.46-6.58-3.41-12.06-3.41c-6.34,0-9.87,3.66-9.87,8.04c0,4.87,3.53,7.07,11.21,9.99c10.24,3.9,15.48,9.02,15.48,17.79
					c0,10.36-8.04,17.67-22.06,17.67c-6.46,0-12.43-1.58-16.57-4.02L81.36,75.65z"/>
				<path class="st0" d="M180.91,56.64c0,21.82-15.11,31.32-29.37,31.32c-15.96,0-28.27-11.7-28.27-30.35
					c0-19.74,12.92-31.32,29.25-31.32C169.46,26.29,180.91,38.6,180.91,56.64z M133.25,57.24c0,12.92,7.43,22.67,17.92,22.67
					c10.24,0,17.91-9.63,17.91-22.91c0-9.99-5-22.67-17.67-22.67C138.73,34.33,133.25,46.03,133.25,57.24z"/>
			</g>
		</g>
	</g>
	<g>
		<g>
			<path class="st1" d="M198.26,101.54V30.92c0-4.43,1.24-8.56,3.35-12.1c-6.93,4.13-11.58,11.68-11.58,20.33v70.62h70.62
				c8.65,0,16.2-4.65,20.33-11.58c-3.55,2.12-7.68,3.35-12.1,3.35H198.26z"/>
			<path class="st2" d="M283.28,93.11c-2.22,0.69-4.58,1.06-7.03,1.06h-70.62V23.55c0-2.45,0.37-4.81,1.06-7.03
				c0.62-2,1.52-3.87,2.62-5.61c-3.15,1.99-5.78,4.7-7.69,7.9c-2.12,3.55-3.35,7.68-3.35,12.1v70.62h70.62
				c4.43,0,8.56-1.24,12.1-3.35c3.2-1.91,5.91-4.55,7.9-7.69C287.15,91.59,285.28,92.49,283.28,93.11z"/>
			<path class="st3" d="M229.31-0.13c-8.43,0-15.81,4.42-20.01,11.05c-1.1,1.73-2,3.61-2.62,5.61c-0.69,2.22-1.06,4.58-1.06,7.03
				v70.62h70.62c2.45,0,4.81-0.37,7.03-1.06c2-0.62,3.87-1.52,5.61-2.62c6.63-4.2,11.05-11.58,11.05-20.01V-0.13H229.31z"/>
		</g>
		<g>
			<path class="st2" d="M218.1,94.44V41.65h-6.47v-6.37h6.47V32.8c0-12.17,7.13-20.07,20.07-20.07c4.28,0,9.32,1.33,11.7,3.04
				l-2.38,6.37c-2-1.43-5.61-2.66-9.7-2.66c-8.84,0-11.41,6.18-11.41,13.51v2.28h26.72V81.3h-8.27V41.65h-18.45v52.79H218.1z"/>
			<path class="st2" d="M261.88,35.27l6.56,9.89c1.71,2.57,3.14,4.94,4.66,7.51h0.29c1.52-2.76,3.04-5.14,4.57-7.61l6.47-9.8h9.03
				l-15.69,22.26l16.17,23.78h-9.51l-6.75-10.37c-1.81-2.66-3.33-5.23-4.95-7.99h-0.19c-1.52,2.76-3.14,5.23-4.85,7.99l-6.66,10.37
				h-9.23l16.36-23.49l-15.6-22.54H261.88z"/>
		</g>
	</g>
</g>
</svg>
