<?xml version="1.0" encoding="utf-8"?>
<!-- Generator: Adobe Illustrator 24.0.0, SVG Export Plug-In . SVG Version: 6.00 Build 0)  -->
<svg version="1.1" id="Layer_1" xmlns="http://www.w3.org/2000/svg" xmlns:xlink="http://www.w3.org/1999/xlink" x="0px" y="0px"
	 viewBox="0 0 300 63.05" style="enable-background:new 0 0 300 63.05;" xml:space="preserve">
<style type="text/css">
	.st0{fill:#012533;}
	.st1{fill:#FF4600;}
</style>
<g id="LOGO">
	<g>
		<path class="st0" d="M94.61,15.19c2.17,0,4.24,0.44,6.21,1.32c1.97,0.89,3.7,2.12,5.19,3.71c1.49,1.59,2.67,3.48,3.56,5.65
			c0.89,2.17,1.33,4.55,1.33,7.12s-0.44,4.95-1.33,7.13c-0.88,2.17-2.07,4.05-3.56,5.64c-1.49,1.59-3.22,2.83-5.19,3.71
			c-1.97,0.88-4.04,1.33-6.21,1.33c-1.32,0-2.51-0.16-3.6-0.46c-1.09-0.3-2.01-0.65-2.77-1.06c-0.91-0.45-1.69-0.96-2.35-1.51v14.77
			H75.67V15.57h7.58l1.51,3.41c0.76-0.71,1.64-1.34,2.65-1.9c0.86-0.45,1.9-0.88,3.11-1.29C91.73,15.39,93.1,15.19,94.61,15.19z
			 M100.67,32.99c0-2.48-0.73-4.48-2.2-6.02c-1.46-1.54-3.26-2.31-5.38-2.31c-2.12,0-3.92,0.77-5.38,2.31
			c-1.47,1.54-2.2,3.55-2.2,6.02s0.73,4.49,2.2,6.02c1.46,1.54,3.26,2.31,5.38,2.31c2.12,0,3.91-0.77,5.38-2.31
			C99.94,37.48,100.67,35.47,100.67,32.99z"/>
		<path class="st0" d="M134.39,15.19c0.46,0,0.87,0.03,1.25,0.08c0.38,0.05,0.69,0.1,0.94,0.15c0.31,0.05,0.58,0.1,0.84,0.15v10.61
			c-0.3-0.1-0.66-0.23-1.06-0.38c-0.36-0.1-0.76-0.19-1.22-0.27c-0.45-0.08-0.96-0.11-1.51-0.11c-1.92,0-3.47,0.63-4.66,1.9
			c-1.19,1.26-1.78,3.03-1.78,5.3v17.81h-10.23V15.57h7.58l1.51,3.79c0.6-0.76,1.34-1.44,2.2-2.05c0.71-0.55,1.58-1.04,2.61-1.48
			C131.9,15.4,133.07,15.19,134.39,15.19z"/>
		<path class="st0" d="M140.83,32.99c0-2.58,0.47-4.96,1.4-7.16c0.94-2.2,2.21-4.12,3.83-5.76c1.62-1.64,3.5-2.93,5.64-3.86
			c2.14-0.93,4.46-1.4,6.93-1.4c2.47,0,4.78,0.47,6.93,1.4c2.15,0.93,4.03,2.22,5.65,3.86c1.61,1.64,2.89,3.56,3.83,5.76
			c0.93,2.2,1.4,4.59,1.4,7.16s-0.47,4.96-1.4,7.16c-0.93,2.2-2.21,4.12-3.83,5.76c-1.62,1.64-3.5,2.93-5.65,3.86
			c-2.14,0.93-4.46,1.4-6.93,1.4c-2.48,0-4.79-0.47-6.93-1.4c-2.15-0.93-4.03-2.22-5.64-3.86c-1.62-1.64-2.89-3.56-3.83-5.76
			C141.3,37.95,140.83,35.57,140.83,32.99z M166.21,32.99c0-2.68-0.73-4.8-2.19-6.36c-1.47-1.56-3.26-2.35-5.38-2.35
			c-2.12,0-3.92,0.79-5.38,2.35c-1.46,1.56-2.2,3.69-2.2,6.36c0,2.68,0.73,4.8,2.2,6.36c1.46,1.56,3.26,2.35,5.38,2.35
			c2.12,0,3.91-0.79,5.38-2.35C165.48,37.79,166.21,35.67,166.21,32.99z"/>
		<path class="st0" d="M193.49,50.04c0,4.19-1.09,7.39-3.26,9.59c-2.17,2.19-5.25,3.29-9.24,3.29c-1.32,0-2.48-0.13-3.49-0.38
			c-0.55-0.1-1.04-0.23-1.44-0.38v-9.1c0.25,0.11,0.5,0.18,0.76,0.23c0.25,0.05,0.53,0.09,0.83,0.12c0.3,0.02,0.66,0.04,1.06,0.04
			c1.32,0,2.4-0.44,3.26-1.32c0.86-0.88,1.29-2.09,1.29-3.6V15.57h10.23V50.04z M182.88,6.1c0-1.52,0.57-2.84,1.7-3.98
			c1.14-1.14,2.46-1.7,3.98-1.7c1.51,0,2.84,0.57,3.98,1.7c1.14,1.14,1.71,2.46,1.71,3.98c0,1.52-0.57,2.84-1.71,3.98
			c-1.13,1.13-2.46,1.7-3.98,1.7c-1.51,0-2.84-0.57-3.98-1.7C183.45,8.94,182.88,7.61,182.88,6.1z"/>
		<path class="st0" d="M234.02,40.19c-0.45,1.41-1.14,2.77-2.05,4.09c-0.91,1.32-2.04,2.49-3.41,3.52
			c-1.37,1.04-2.94,1.86-4.74,2.46c-1.79,0.61-3.83,0.91-6.1,0.91c-2.37,0-4.61-0.47-6.7-1.4c-2.1-0.93-3.94-2.22-5.53-3.86
			c-1.59-1.64-2.85-3.56-3.79-5.76c-0.93-2.2-1.4-4.58-1.4-7.16s0.47-4.96,1.4-7.16c0.93-2.2,2.21-4.12,3.83-5.76
			c1.61-1.64,3.5-2.93,5.64-3.86c2.15-0.93,4.46-1.4,6.93-1.4c2.37,0,4.6,0.43,6.67,1.29c2.07,0.86,3.87,2.09,5.41,3.67
			c1.54,1.6,2.75,3.51,3.64,5.76c0.88,2.25,1.32,4.73,1.32,7.46c0,0.41-0.02,0.8-0.08,1.17c-0.05,0.38-0.1,0.74-0.15,1.1
			c-0.05,0.41-0.1,0.79-0.15,1.14h-23.87c0.4,1.31,1.22,2.53,2.46,3.64c1.24,1.11,2.82,1.67,4.74,1.67c0.96,0,1.78-0.11,2.46-0.34
			c0.68-0.23,1.22-0.49,1.63-0.8c0.51-0.3,0.91-0.68,1.21-1.13L234.02,40.19z M218.11,24.28c-1.92,0-3.5,0.57-4.74,1.7
			c-1.24,1.14-2.06,2.46-2.46,3.98h14.4c-0.41-1.51-1.23-2.84-2.46-3.98C221.61,24.85,220.03,24.28,218.11,24.28z"/>
		<path class="st0" d="M257.13,14.81c1.71,0,3.28,0.19,4.7,0.57c1.41,0.38,2.68,0.9,3.79,1.56c1.11,0.66,2.09,1.39,2.92,2.2
			c0.84,0.81,1.56,1.64,2.16,2.5c1.41,2.02,2.45,4.29,3.11,6.82l-10.23,0.75c-0.35-0.9-0.81-1.71-1.36-2.42
			c-0.5-0.61-1.17-1.18-2.01-1.7c-0.83-0.54-1.86-0.8-3.07-0.8c-2.12,0-3.92,0.79-5.38,2.35c-1.46,1.56-2.2,3.69-2.2,6.36
			c0,2.68,0.73,4.8,2.2,6.36c1.46,1.56,3.26,2.35,5.38,2.35c1.21,0,2.24-0.25,3.07-0.76c0.83-0.5,1.5-1.06,2.01-1.67
			c0.56-0.71,1.01-1.54,1.36-2.5l10.23,0.76c-0.66,2.53-1.69,4.8-3.11,6.82c-0.61,0.86-1.32,1.7-2.16,2.5
			c-0.83,0.81-1.8,1.54-2.92,2.2c-1.11,0.65-2.37,1.17-3.79,1.55c-1.42,0.38-2.98,0.57-4.7,0.57c-2.48,0-4.79-0.47-6.93-1.4
			c-2.15-0.93-4.03-2.22-5.64-3.86c-1.62-1.64-2.89-3.56-3.83-5.76c-0.93-2.2-1.4-4.58-1.4-7.16s0.47-4.96,1.4-7.16
			c0.93-2.2,2.21-4.12,3.83-5.76c1.62-1.64,3.49-2.93,5.64-3.86C252.34,15.28,254.65,14.81,257.13,14.81z"/>
		<path class="st0" d="M282.51,25.04h-5.31v-8.71h2.65c2.77,0,4.17-1.39,4.17-4.17V7.23h8.71v8.34h7.2v9.47h-7.2V36.4
			c0,1.52,0.43,2.72,1.29,3.6c0.86,0.88,1.95,1.33,3.26,1.33c0.4,0,0.76-0.01,1.07-0.04c0.3-0.02,0.57-0.06,0.83-0.11
			c0.25-0.05,0.5-0.12,0.76-0.23v9.09c-0.4,0.15-0.86,0.28-1.37,0.38c-1.01,0.25-2.2,0.38-3.56,0.38c-3.99,0-7.07-1.1-9.24-3.3
			c-2.17-2.2-3.26-5.39-3.26-9.58V25.04z"/>
	</g>
	<g>
		<g>
			<path class="st1" d="M24.75,27.68v7.06c0,1.66,1.34,3,3,3h7.05c1.66,0,3-1.34,3-3v-7.06c0-1.66-1.34-3-3-3h-7.05
				C26.09,24.68,24.75,26.02,24.75,27.68z"/>
		</g>
		<g>
			<path class="st1" d="M49.56-0.13H37.81H12.99H2.94c-1.66,0-3,1.34-3,3v10.05v24.81v11.76v10.05c0,1.66,1.34,3,3,3h10.06h21.81
				c1.66,0,3-1.34,3-3v-7.05c0-1.66-1.34-3-3-3H15.99c-1.66,0-3-1.34-3-3v-8.76V15.92c0-1.66,1.34-3,3-3h21.81h8.75
				c1.66,0,3,1.34,3,3v33.57v10.05c0,1.66,1.34,3,3,3h7.05c1.66,0,3-1.34,3-3V49.49V12.92V2.87c0-1.66-1.34-3-3-3H49.56z"/>
		</g>
	</g>
</g>
</svg>
