<?xml version="1.0" encoding="utf-8"?>
<!-- Generator: Adobe Illustrator 22.0.1, SVG Export Plug-In . SVG Version: 6.00 Build 0)  -->
<svg version="1.1" id="Layer_1" xmlns="http://www.w3.org/2000/svg" xmlns:xlink="http://www.w3.org/1999/xlink" x="0px" y="0px"
	 viewBox="0 0 300 83.4" style="enable-background:new 0 0 300 83.4;" xml:space="preserve">
<style type="text/css">
	.st0{fill:url(#SVGID_1_);}
	.st1{fill:url(#SVGID_2_);}
	.st2{fill:url(#SVGID_3_);}
	.st3{fill:url(#SVGID_4_);}
	.st4{fill:#353D43;}
</style>
<g>
	<g>
		<linearGradient id="SVGID_1_" gradientUnits="userSpaceOnUse" x1="27.3679" y1="-0.4722" x2="5.3219" y2="26.8229">
			<stop  offset="0" style="stop-color:#516EB8"/>
			<stop  offset="1" style="stop-color:#2A45A3"/>
		</linearGradient>
		<path class="st0" d="M26.8,0H8.7C7.4,0,6.3,1.1,6.3,2.4v18.1c0,1.3,1.1,2.4,2.4,2.4h18.1c1.3,0,2.4-1.1,2.4-2.4V2.4
			C29.2,1.1,28.1,0,26.8,0z"/>
		<linearGradient id="SVGID_2_" gradientUnits="userSpaceOnUse" x1="222.5722" y1="75.4369" x2="215.0415" y2="84.7606">
			<stop  offset="0" style="stop-color:#516EB8"/>
			<stop  offset="1" style="stop-color:#2A45A3"/>
		</linearGradient>
		<path class="st1" d="M222.4,75.6h-6.2c-0.5,0-0.8,0.4-0.8,0.8v6.2c0,0.5,0.4,0.8,0.8,0.8h6.2c0.5,0,0.8-0.4,0.8-0.8v-6.2
			C223.2,76,222.8,75.6,222.4,75.6z"/>
		<linearGradient id="SVGID_3_" gradientUnits="userSpaceOnUse" x1="33.2874" y1="51.8605" x2="-5.1051" y2="81.7047">
			<stop  offset="0" style="stop-color:#516EB8"/>
			<stop  offset="1" style="stop-color:#2A45A3"/>
		</linearGradient>
		<path class="st2" d="M35.9,42.1H4.2C1.9,42.1,0,44,0,46.3V78c0,2.3,1.9,4.2,4.2,4.2h31.7c2.3,0,4.2-1.9,4.2-4.2V46.3
			C40.1,44,38.2,42.1,35.9,42.1z"/>
		<linearGradient id="SVGID_4_" gradientUnits="userSpaceOnUse" x1="55.3847" y1="18.7438" x2="30.3388" y2="59.3871">
			<stop  offset="0" style="stop-color:#516EB8"/>
			<stop  offset="1" style="stop-color:#2A45A3"/>
		</linearGradient>
		<path class="st3" d="M60.5,12.8H31.1V22c0,1.6-1.3,2.8-2.8,2.8h-9.7V40h18.9c2.6,0,4.7,2.1,4.7,4.7v14.9h18.3
			c2.7,0,4.9-2.2,4.9-4.9v-37C65.4,15,63.2,12.8,60.5,12.8z"/>
	</g>
	<g>
		<path class="st4" d="M73.3,81.6c-1.9-1.1-3.4-2.5-4.5-4.4c-1.1-1.9-1.6-3.9-1.6-6.3c0-2.3,0.5-4.4,1.6-6.3
			c1.1-1.9,2.6-3.3,4.5-4.4c1.9-1.1,4.1-1.6,6.4-1.6c1.8,0,3.4,0.3,4.9,0.9c1.5,0.6,2.8,1.5,3.8,2.6L87,63.9
			c-1.9-1.9-4.2-2.8-7.1-2.8c-1.9,0-3.6,0.4-5.2,1.3c-1.6,0.9-2.8,2.1-3.7,3.6c-0.9,1.5-1.3,3.2-1.3,5.1c0,1.9,0.4,3.6,1.3,5.1
			c0.9,1.5,2.1,2.7,3.7,3.6c1.6,0.9,3.3,1.3,5.2,1.3c2.9,0,5.2-1,7.1-2.9l1.6,1.6c-1.1,1.1-2.3,2-3.9,2.6c-1.5,0.6-3.2,0.9-5,0.9
			C77.4,83.2,75.2,82.7,73.3,81.6z"/>
		<path class="st4" d="M99.2,81.6c-1.9-1.1-3.4-2.5-4.5-4.4c-1.1-1.9-1.6-3.9-1.6-6.2c0-2.3,0.5-4.4,1.6-6.2
			c1.1-1.9,2.6-3.3,4.5-4.4c1.9-1.1,4.1-1.6,6.5-1.6c2.4,0,4.5,0.5,6.4,1.6c1.9,1.1,3.4,2.5,4.5,4.4c1.1,1.9,1.6,3.9,1.6,6.3
			c0,2.3-0.5,4.4-1.6,6.3c-1.1,1.9-2.6,3.3-4.5,4.4c-1.9,1.1-4.1,1.6-6.4,1.6C103.3,83.2,101.2,82.7,99.2,81.6z M110.8,79.7
			c1.5-0.9,2.7-2,3.6-3.6c0.9-1.5,1.3-3.2,1.3-5.1c0-1.9-0.4-3.6-1.3-5.1c-0.9-1.5-2.1-2.7-3.6-3.6c-1.5-0.9-3.2-1.3-5.1-1.3
			c-1.9,0-3.6,0.4-5.2,1.3c-1.5,0.9-2.8,2-3.6,3.6c-0.9,1.5-1.3,3.2-1.3,5.1c0,1.9,0.4,3.6,1.3,5.1c0.9,1.5,2.1,2.7,3.6,3.6
			c1.5,0.9,3.3,1.3,5.2,1.3C107.6,80.9,109.3,80.5,110.8,79.7z"/>
		<path class="st4" d="M145.7,59v24h-2.1l-15.4-19.5V83h-2.5V59h2.1l15.5,19.5V59H145.7z"/>
		<path class="st4" d="M156.8,82.4c-1.6-0.6-2.9-1.3-3.8-2.3l1-2c0.9,0.9,2,1.6,3.5,2.1c1.4,0.5,2.9,0.8,4.5,0.8
			c2.1,0,3.8-0.4,4.8-1.2c1.1-0.8,1.6-1.8,1.6-3.1c0-1-0.3-1.7-0.9-2.3c-0.6-0.6-1.3-1-2.1-1.3c-0.8-0.3-2-0.6-3.5-1
			c-1.8-0.5-3.2-0.9-4.3-1.3c-1.1-0.4-2-1.1-2.8-1.9c-0.8-0.9-1.1-2-1.1-3.5c0-1.2,0.3-2.3,1-3.3c0.6-1,1.6-1.8,2.9-2.4
			c1.3-0.6,3-0.9,4.9-0.9c1.4,0,2.7,0.2,4,0.6c1.3,0.4,2.5,0.9,3.4,1.6l-0.9,2c-1-0.7-2.1-1.2-3.2-1.5c-1.1-0.3-2.3-0.5-3.4-0.5
			c-2.1,0-3.7,0.4-4.7,1.2c-1.1,0.8-1.6,1.9-1.6,3.1c0,1,0.3,1.7,0.9,2.3c0.6,0.6,1.3,1,2.2,1.3c0.9,0.3,2.1,0.6,3.5,1
			c1.8,0.4,3.2,0.9,4.3,1.3c1.1,0.4,2,1.1,2.8,1.9c0.8,0.9,1.1,2,1.1,3.5c0,1.2-0.3,2.3-1,3.3c-0.7,1-1.7,1.8-3,2.4
			c-1.3,0.6-3,0.9-5,0.9C160.1,83.2,158.4,82.9,156.8,82.4z"/>
		<path class="st4" d="M178.1,59h2.5v24h-2.5V59z"/>
		<path class="st4" d="M207,71h2.4v9.2c-1.1,1-2.4,1.7-4,2.3c-1.5,0.5-3.1,0.8-4.8,0.8c-2.4,0-4.6-0.5-6.5-1.6
			c-1.9-1.1-3.4-2.5-4.5-4.4c-1.1-1.9-1.6-3.9-1.6-6.3c0-2.3,0.5-4.4,1.6-6.3c1.1-1.9,2.6-3.3,4.5-4.4c1.9-1.1,4.1-1.6,6.5-1.6
			c1.8,0,3.5,0.3,5,0.9c1.5,0.6,2.8,1.4,3.9,2.6l-1.6,1.6c-1.9-1.9-4.3-2.8-7.2-2.8c-1.9,0-3.7,0.4-5.3,1.3c-1.6,0.9-2.8,2-3.7,3.6
			c-0.9,1.5-1.3,3.2-1.3,5.1c0,1.9,0.4,3.6,1.3,5.1c0.9,1.5,2.1,2.7,3.7,3.6c1.6,0.9,3.3,1.3,5.2,1.3c2.5,0,4.6-0.6,6.3-1.9V71z"/>
		<path class="st4" d="M243.4,83l-5-7.4l-4.9,7.4h-7.7l8.7-12.1L226.2,59h7.6l4.8,6.9l4.7-6.9h7.3l-8.4,11.6l8.9,12.4H243.4z"/>
		<path class="st4" d="M267.1,74.4V83h-6.8v-8.7L251.1,59h7.2l5.7,9.5l5.7-9.5h6.6L267.1,74.4z"/>
		<path class="st4" d="M300,77.6V83h-21.5v-4.3l12.1-14.4h-11.8V59h20.7v4.3l-12.1,14.4H300z"/>
	</g>
</g>
</svg>
