<?xml version="1.0" encoding="utf-8"?>
<!-- Generator: Adobe Illustrator 24.0.0, SVG Export Plug-In . SVG Version: 6.00 Build 0)  -->
<svg version="1.1" id="Layer_1" xmlns="http://www.w3.org/2000/svg" xmlns:xlink="http://www.w3.org/1999/xlink" x="0px" y="0px"
	 viewBox="0 0 300 122.7" style="enable-background:new 0 0 300 122.7;" xml:space="preserve">
<style type="text/css">
	.st0{fill:#1A3351;}
	.st1{fill:url(#SVGID_1_);}
</style>
<g>
	<g>
		<g>
			<path class="st0" d="M23.5,51.6c1.9,0,3.6,0.4,5,1.2c1.4,0.8,2.5,2,3.3,3.6c0.8,1.6,1.1,3.4,1.1,5.5v15.1c0,0.3-0.2,0.5-0.5,0.5
				h-3.9c-0.3,0-0.5-0.2-0.5-0.5V62.5c0-4.3-1.8-6.4-5.5-6.4c-1.7,0-3.1,0.5-4.2,1.5c-1.1,1-1.7,2.2-1.7,3.7V77
				c0,0.3-0.2,0.5-0.5,0.5h-4c-0.3,0-0.5-0.2-0.5-0.5V52.3c0-0.3,0.2-0.5,0.5-0.5h4c0.3,0,0.5,0.2,0.5,0.5v0.6
				c0,0.4,0.5,0.6,0.8,0.4C19,52.1,21,51.6,23.5,51.6z"/>
			<path class="st0" d="M38,44.1c0.6-0.6,1.3-0.9,2.1-0.9s1.6,0.3,2.1,0.9c0.6,0.6,0.9,1.3,0.9,2.1s-0.3,1.6-0.9,2.2
				c-0.6,0.6-1.3,0.9-2.1,0.9s-1.5-0.3-2.1-0.9c-0.6-0.6-0.9-1.4-0.9-2.2C37.1,45.4,37.4,44.7,38,44.1z M42.6,52.2v24.6
				c0,0.3-0.2,0.5-0.5,0.5h-4.1c-0.3,0-0.5-0.2-0.5-0.5V52.2c0-0.3,0.2-0.5,0.5-0.5h4.1C42.4,51.7,42.6,52,42.6,52.2z"/>
			<path class="st0" d="M59.7,51.6c1.9,0,3.6,0.4,5,1.2c1.4,0.8,2.5,2,3.3,3.6s1.1,3.4,1.1,5.5v15.1c0,0.3-0.2,0.5-0.5,0.5h-3.9
				c-0.3,0-0.5-0.2-0.5-0.5V62.5c0-4.3-1.8-6.4-5.5-6.4c-1.7,0-3.1,0.5-4.2,1.5c-1.1,1-1.7,2.2-1.7,3.7V77c0,0.3-0.2,0.5-0.5,0.5h-4
				c-0.3,0-0.5-0.2-0.5-0.5V52.3c0-0.3,0.2-0.5,0.5-0.5h4c0.3,0,0.5,0.2,0.5,0.5v0.6c0,0.4,0.5,0.6,0.8,0.4
				C55.2,52.2,57.3,51.6,59.7,51.6z"/>
			<path class="st0" d="M75,58.1c1.1-1.9,2.7-3.5,4.6-4.6c2-1.2,4.1-1.7,6.5-1.7c2.5,0,4.7,0.5,6.5,1.6c2.1,1.2,3.6,2.9,4.8,5
				c1.1,2,1.6,4.2,1.5,6.8c0,0.3-0.2,0.5-0.5,0.5H78.9c-0.3,0-0.6,0.3-0.5,0.6c0.2,1,0.5,1.9,1,2.9v0.1c0.8,1.2,1.7,2.2,3,2.9
				c1.3,0.6,2.8,1,4.4,1c3.2,0,5.7-1.4,7.5-4.1c0.2-0.2,0.4-0.3,0.7-0.2l3,1.6c0.3,0.2,0.4,0.5,0.2,0.8c-1.1,1.9-2.6,3.5-4.5,4.6
				c-2.1,1.2-4.4,1.8-7,1.8c-2.5,0-4.8-0.6-6.9-1.7c-2.1-1.2-3.6-2.8-4.8-4.7s-1.7-4.2-1.7-6.5C73.3,62.2,73.9,60.1,75,58.1z
				 M91.1,57.7c-1.5-1-3-1.5-4.8-1.5c-1.9,0-3.5,0.5-4.9,1.5c-1.1,0.8-1.9,1.8-2.3,2.9c-0.1,0.3,0.2,0.7,0.5,0.7h13.5
				c0.4,0,0.6-0.4,0.5-0.7C93.1,59.5,92.3,58.5,91.1,57.7z"/>
			<path class="st0" d="M104.1,51.7l7.2,16.5c0.2,0.4,0.8,0.4,1,0l6.1-16.2c0.1-0.2,0.3-0.3,0.5-0.3h2.8c0.2,0,0.4,0.2,0.5,0.3
				l6.1,16.2c0.2,0.4,0.8,0.5,1,0l7-16.2c0.1-0.2,0.3-0.3,0.5-0.3h4.5c0.4,0,0.6,0.4,0.5,0.8l-11.4,24.7c-0.1,0.2-0.3,0.3-0.5,0.3
				h-2.6c-0.2,0-0.4-0.2-0.5-0.3l-5.9-15.9c-0.2-0.4-0.8-0.4-1,0l-5.9,15.9c-0.1,0.2-0.3,0.3-0.5,0.3h-2.5c-0.2,0-0.4-0.1-0.5-0.3
				L98.8,52.5c-0.2-0.3,0.1-0.8,0.5-0.8L104.1,51.7L104.1,51.7z"/>
			<path class="st0" d="M143,61.1c0.3-1.1,0.8-2.2,1.4-3.1c1.2-2,2.8-3.6,4.8-4.6c2-1.1,4.3-1.6,6.9-1.6c2.5,0,4.8,0.5,6.9,1.7
				c2.1,1.1,3.7,2.7,4.9,4.6c1.2,1.9,1.7,4.1,1.7,6.3c0,2.6-0.6,4.9-1.7,6.8c-1.2,2-2.9,3.5-4.9,4.6c-2.1,1.1-4.4,1.7-6.9,1.7
				c-2.5,0-4.9-0.5-6.9-1.7c-2.2-1.2-3.8-2.8-5-4.7c-1.2-2-1.7-4.2-1.7-6.7C142.5,63.3,142.7,62.2,143,61.1z M148.7,68.7
				c0.8,1.3,1.8,2.3,3.1,3c1.3,0.7,2.7,1.1,4.3,1.1c1.7,0,3.1-0.4,4.4-1.1c1.3-0.8,2.3-1.8,3-3c0.7-1.2,1-2.7,1-4.3
				c0-1.4-0.4-2.6-1.1-3.9c-0.8-1.3-1.7-2.3-3-3s-2.7-1.1-4.3-1.1c-1.7,0-3.1,0.4-4.4,1.1c-1.3,0.8-2.3,1.7-3,2.9
				c-0.8,1.2-1.1,2.5-1.1,3.9C147.6,65.9,147.9,67.4,148.7,68.7z"/>
			<path class="st0" d="M179,58.2c-0.8,1-1.2,2.9-1.2,5.5v13.2c0,0.3-0.2,0.5-0.5,0.5h-4.1c-0.3,0-0.5-0.2-0.5-0.5l0.1-13.2
				c0.1-4,0.9-6.9,2.6-8.8c1.7-1.9,4.4-2.9,8.1-2.9c1.5,0,2.5,0,3.1,0c0.3,0,0.5,0.2,0.5,0.5v3.5c0,0.3-0.2,0.5-0.5,0.5l-3-0.1
				C181.3,56.7,179.9,57.2,179,58.2z"/>
			<path class="st0" d="M214.4,71c-1,2-2.5,3.6-4.4,4.7c-1.9,1.2-4.1,1.8-6.3,1.8c-1.7,0-3.3-0.4-4.9-1.1c-1.1-0.5-2-1.2-2.8-2
				c-0.3-0.3-0.9-0.1-0.9,0.4v12.8c0,0.3-0.2,0.5-0.5,0.5h-4c-0.3,0-0.5-0.2-0.5-0.5V52.2c0-0.3,0.2-0.5,0.5-0.5h4
				c0.3,0,0.5,0.2,0.5,0.5V54c0,0.4,0.5,0.7,0.9,0.4c0.9-0.8,1.9-1.4,3-1.8c1.5-0.6,3-0.9,4.6-0.9c2.3,0,4.4,0.6,6.3,1.7
				c1.9,1.1,3.4,2.7,4.4,4.7c1.1,1.9,1.6,4,1.6,6.2C216,66.8,215.4,69,214.4,71z M209.9,60.3c-0.6-1.2-1.6-2.2-2.9-2.9
				c-1.3-0.7-2.6-1-4.1-1c-1.6,0-2.9,0.3-4.2,1c-1.2,0.7-2.2,1.7-2.8,3c-0.6,1.4-1,2.7-1,4c0,1.6,0.3,3.1,1,4.4
				c0.6,1.3,1.6,2.3,2.9,3c1.3,0.8,2.6,1.1,4.1,1.1c1.5,0,2.9-0.4,4.1-1.1c1.2-0.7,2.2-1.7,2.9-3c0.7-1.3,1-2.8,1-4.4
				C210.9,62.9,210.6,61.5,209.9,60.3z"/>
			<path class="st0" d="M227.2,52.4c1.2-0.4,2.5-0.6,3.8-0.6c1.9,0,3.6,0.4,5,1.1c1.4,0.8,2.5,2.1,3.3,3.6s1.1,3.4,1.1,5.5v15
				c0,0.3-0.2,0.5-0.5,0.5h-4c-0.3,0-0.5-0.2-0.5-0.5V62.6c0-4.3-1.8-6.4-5.5-6.4c-1.7,0-3,0.5-4.2,1.5c-1.1,1-1.7,2.2-1.7,3.6V77
				c0,0.3-0.2,0.5-0.5,0.5h-4c-0.3,0-0.5-0.2-0.5-0.5V36.5c0-0.3,0.2-0.5,0.5-0.5h4c0.3,0,0.5,0.2,0.5,0.5v16.7
				c0,0.4,0.5,0.6,0.9,0.4C225.6,53.1,226.3,52.7,227.2,52.4z"/>
			<path class="st0" d="M245.5,44.1c0.6-0.6,1.3-0.9,2.1-0.9s1.6,0.3,2.1,0.9c0.6,0.6,0.9,1.3,0.9,2.1s-0.3,1.6-0.9,2.2
				c-0.6,0.6-1.3,0.9-2.1,0.9s-1.5-0.3-2.1-0.9c-0.6-0.6-0.9-1.4-0.9-2.2C244.6,45.4,244.9,44.7,245.5,44.1z M250.2,52.2v24.6
				c0,0.3-0.2,0.5-0.5,0.5h-4.1c-0.3,0-0.5-0.2-0.5-0.5V52.2c0-0.3,0.2-0.5,0.5-0.5h4.1C249.9,51.7,250.2,52,250.2,52.2z"/>
		</g>
	</g>
	<g>
		<g>
			<path class="st0" d="M281.2,76h5.6c0.9,0,1.6-0.8,1.6-1.6v-3.6C286.2,72.7,283.8,74.4,281.2,76C281.3,76,281.2,76,281.2,76z"/>
			<path class="st0" d="M274.7,65.5c-0.8-1.7-1.8-3.2-3.1-4.5c-2.4-2.5-3.9-5.9-4.2-9.3c-0.4-5.3,2.2-10.5,6.5-13.5
				c0.9-0.6,1.8-1.1,2.9-1.5c0.4-0.2,0.8-0.3,1.1-0.4h-12.7c-0.9,0-1.6,0.8-1.6,1.6v36.5c0,0.9,0.8,1.6,1.6,1.6h8.5
				c0.2-0.4,0.4-0.9,0.6-1.4C275.8,71.6,276.1,68.6,274.7,65.5z"/>
		</g>
		<g>
			
				<linearGradient id="SVGID_1_" gradientUnits="userSpaceOnUse" x1="268.9262" y1="67.4679" x2="288.373" y2="67.4679" gradientTransform="matrix(1 0 0 -1 0 124)">
				<stop  offset="0" style="stop-color:#C3410B"/>
				<stop  offset="5.783089e-02" style="stop-color:#C6440C"/>
				<stop  offset="0.5168" style="stop-color:#DD5513"/>
				<stop  offset="0.7675" style="stop-color:#DF5714"/>
				<stop  offset="0.8842" style="stop-color:#E75D16"/>
				<stop  offset="0.973" style="stop-color:#F3671A"/>
				<stop  offset="1" style="stop-color:#F96B1C"/>
			</linearGradient>
			<path class="st1" d="M269,51.6c-0.4-5.3,2.2-10.5,6.5-13.5c0.9-0.6,1.8-1.1,2.9-1.5c2.9-1.2,6.2-1.4,9.2-0.6
				c0.5,0.2,0.9,0.3,0.9,1c0,10.4,0,20.9,0,31.3c0,0.5-0.2,0.8-0.5,1.1c-2.4,2-4.9,3.8-7.6,5.5c-0.8,0.5-1.6,1-2.4,1.4
				c-0.7,0.4-1.3,0.9-2.1,1.1c-0.2,0.1-0.6,0.1-0.8-0.1c-0.2-0.2-0.1-0.6,0.1-0.8c0.3-0.6,0.6-1.2,0.9-1.9c1.4-3,1.6-6.1,0.2-9.1
				c-0.8-1.7-1.8-3.2-3.1-4.5C270.8,58.5,269.2,55.1,269,51.6z"/>
		</g>
	</g>
</g>
</svg>
