<?xml version="1.0" encoding="utf-8"?>
<!-- Generator: Adobe Illustrator 24.0.0, SVG Export Plug-In . SVG Version: 6.00 Build 0)  -->
<svg version="1.1" id="Layer_1" xmlns="http://www.w3.org/2000/svg" xmlns:xlink="http://www.w3.org/1999/xlink" x="0px" y="0px"
	 viewBox="0 0 300 122.7" style="enable-background:new 0 0 300 122.7;" xml:space="preserve">
<style type="text/css">
	.st0{fill:#1A3351;}
</style>
<g>
	<g>
		<g>
			<path class="st0" d="M28.6,52.1c1.8,0,3.4,0.4,4.8,1.1c1.3,0.8,2.4,1.9,3.2,3.4c0.7,1.5,1.1,3.3,1.1,5.2v14.5
				c0,0.3-0.2,0.5-0.5,0.5h-3.8c-0.3,0-0.5-0.2-0.5-0.5V62.5c0-4.1-1.8-6.1-5.2-6.1c-1.6,0-3,0.5-4,1.4c-1,0.9-1.6,2.1-1.6,3.6v15
				c0,0.3-0.2,0.5-0.5,0.5h-3.8c-0.3,0-0.5-0.2-0.5-0.5V52.7c0-0.3,0.2-0.5,0.5-0.5h3.8c0.3,0,0.5,0.2,0.5,0.5v0.6
				c0,0.4,0.5,0.6,0.8,0.4C24.3,52.5,26.2,52.1,28.6,52.1z"/>
			<path class="st0" d="M42.5,44.8c0.6-0.6,1.2-0.8,2-0.8c0.8,0,1.5,0.3,2,0.8c0.6,0.6,0.8,1.2,0.8,2c0,0.8-0.3,1.5-0.8,2.1
				c-0.6,0.6-1.2,0.9-2,0.9c-0.8,0-1.5-0.3-2-0.9c-0.6-0.6-0.9-1.3-0.9-2.1C41.6,46,41.9,45.4,42.5,44.8z M47,52.6v23.6
				c0,0.3-0.2,0.5-0.5,0.5h-3.9c-0.3,0-0.5-0.2-0.5-0.5V52.6c0-0.3,0.2-0.5,0.5-0.5h3.9C46.7,52.1,47,52.4,47,52.6z"/>
			<path class="st0" d="M63.3,52.1c1.8,0,3.4,0.4,4.8,1.1c1.3,0.8,2.4,1.9,3.2,3.4s1.1,3.3,1.1,5.2v14.5c0,0.3-0.2,0.5-0.5,0.5h-3.8
				c-0.3,0-0.5-0.2-0.5-0.5V62.5c0-4.1-1.8-6.1-5.2-6.1c-1.6,0-3,0.5-4,1.4c-1,0.9-1.6,2.1-1.6,3.6v15c0,0.3-0.2,0.5-0.5,0.5h-3.8
				c-0.3,0-0.5-0.2-0.5-0.5V52.7c0-0.3,0.2-0.5,0.5-0.5h3.8c0.3,0,0.5,0.2,0.5,0.5v0.6c0,0.4,0.5,0.6,0.8,0.4
				C59,52.6,61,52.1,63.3,52.1z"/>
			<path class="st0" d="M78,58.3c1.1-1.9,2.6-3.4,4.5-4.5c1.9-1.1,3.9-1.7,6.2-1.7c2.4,0,4.5,0.5,6.2,1.6c2,1.1,3.5,2.7,4.6,4.8
				c1,1.9,1.5,4,1.4,6.5c0,0.3-0.2,0.5-0.5,0.5H81.8c-0.3,0-0.6,0.3-0.5,0.6c0.2,0.9,0.5,1.8,0.9,2.7v0.1c0.7,1.2,1.7,2.1,2.9,2.7
				c1.2,0.6,2.6,1,4.2,1c3.1,0,5.5-1.3,7.2-3.9c0.2-0.2,0.4-0.3,0.7-0.2L100,70c0.3,0.2,0.4,0.5,0.2,0.7c-1,1.8-2.5,3.3-4.4,4.4
				c-2,1.2-4.3,1.8-6.7,1.8c-2.4,0-4.6-0.6-6.6-1.7c-2-1.1-3.5-2.6-4.6-4.5c-1.1-1.9-1.7-4-1.7-6.3C76.4,62.2,76.9,60.1,78,58.3z
				 M93.4,57.9c-1.4-0.9-2.9-1.4-4.6-1.4c-1.8,0-3.4,0.5-4.7,1.4c-1.1,0.8-1.8,1.7-2.2,2.8c-0.1,0.3,0.2,0.7,0.5,0.7h12.9
				c0.4,0,0.6-0.4,0.5-0.7C95.4,59.6,94.6,58.6,93.4,57.9z"/>
			<path class="st0" d="M106,52.1l6.9,15.9c0.2,0.4,0.8,0.4,0.9,0l5.8-15.5c0.1-0.2,0.3-0.3,0.5-0.3h2.6c0.2,0,0.4,0.2,0.5,0.3
				L129,68c0.2,0.4,0.8,0.5,0.9,0l6.7-15.6c0.1-0.2,0.3-0.3,0.5-0.3h4.4c0.4,0,0.6,0.4,0.5,0.7L131,76.5c-0.1,0.2-0.3,0.3-0.5,0.3
				h-2.5c-0.2,0-0.4-0.2-0.5-0.3l-5.7-15.2c-0.2-0.4-0.8-0.4-0.9,0l-5.7,15.2c-0.1,0.2-0.3,0.3-0.5,0.3h-2.4c-0.2,0-0.4-0.1-0.5-0.3
				l-11-23.6c-0.2-0.3,0.1-0.7,0.5-0.7L106,52.1L106,52.1z"/>
			<path class="st0" d="M143.3,61.1c0.3-1.1,0.8-2.1,1.3-3c1.1-1.9,2.7-3.4,4.6-4.5s4.1-1.6,6.6-1.6c2.4,0,4.6,0.5,6.6,1.6
				c2,1.1,3.6,2.6,4.7,4.5c1.1,1.9,1.7,3.9,1.7,6.1c0,2.5-0.6,4.7-1.7,6.5c-1.1,1.9-2.7,3.4-4.7,4.5c-2,1-4.2,1.6-6.6,1.6
				c-2.4,0-4.7-0.5-6.6-1.6c-2.1-1.1-3.7-2.6-4.8-4.5c-1.1-1.9-1.7-4-1.7-6.4C142.8,63.3,142.9,62.2,143.3,61.1z M148.8,68.4
				c0.7,1.2,1.7,2.2,3,2.9s2.6,1,4.1,1c1.6,0,3-0.4,4.2-1c1.2-0.7,2.2-1.7,2.9-2.9c0.7-1.2,1-2.6,1-4.1c0-1.3-0.4-2.5-1-3.7
				c-0.7-1.2-1.7-2.2-2.9-2.9c-1.2-0.7-2.6-1-4.1-1c-1.6,0-3,0.4-4.2,1c-1.2,0.7-2.2,1.7-2.9,2.8c-0.7,1.1-1,2.4-1,3.8
				C147.7,65.7,148,67.1,148.8,68.4z"/>
			<path class="st0" d="M177.8,58.4c-0.8,1-1.2,2.7-1.2,5.3v12.7c0,0.3-0.2,0.5-0.5,0.5h-3.9c-0.3,0-0.5-0.2-0.5-0.5l0.1-12.7
				c0.1-3.8,0.9-6.6,2.5-8.5c1.6-1.8,4.2-2.7,7.7-2.7c1.4,0,2.4,0,3,0c0.3,0,0.5,0.2,0.5,0.5v3.4c0,0.3-0.2,0.5-0.5,0.5l-2.9-0.1
				C180,56.9,178.7,57.4,177.8,58.4z"/>
			<path class="st0" d="M211.8,70.6c-1,1.9-2.4,3.4-4.2,4.5c-1.9,1.1-3.9,1.7-6.1,1.7c-1.7,0-3.2-0.4-4.7-1.1
				c-1-0.5-1.9-1.1-2.7-1.9c-0.3-0.3-0.9-0.1-0.9,0.4v12.2c0,0.3-0.2,0.5-0.5,0.5h-3.8c-0.3,0-0.5-0.2-0.5-0.5V52.6
				c0-0.3,0.2-0.5,0.5-0.5h3.8c0.3,0,0.5,0.2,0.5,0.5v1.7c0,0.4,0.5,0.7,0.8,0.4c0.8-0.7,1.8-1.3,2.9-1.8c1.4-0.6,2.9-0.9,4.5-0.9
				c2.2,0,4.3,0.6,6.1,1.6c1.8,1,3.3,2.6,4.3,4.5c1,1.8,1.6,3.8,1.6,6C213.3,66.6,212.8,68.7,211.8,70.6z M207.5,60.3
				c-0.6-1.2-1.6-2.1-2.7-2.7c-1.2-0.7-2.5-1-3.9-1c-1.5,0-2.8,0.3-4,1c-1.1,0.7-2.1,1.6-2.7,2.9c-0.6,1.3-0.9,2.6-0.9,3.8
				c0,1.6,0.3,3,1,4.2c0.6,1.2,1.6,2.2,2.7,2.9c1.2,0.7,2.5,1,3.9,1c1.4,0,2.7-0.4,3.9-1c1.1-0.7,2.1-1.7,2.7-2.9
				c0.7-1.2,1-2.6,1-4.3C208.4,62.8,208.1,61.5,207.5,60.3z"/>
			<path class="st0" d="M224.1,52.8c1.1-0.4,2.4-0.6,3.7-0.6c1.9,0,3.5,0.4,4.8,1.1c1.3,0.8,2.4,2,3.2,3.5c0.8,1.5,1.1,3.3,1.1,5.3
				v14.4c0,0.3-0.2,0.5-0.5,0.5h-3.8c-0.3,0-0.5-0.2-0.5-0.5V62.6c0-4.1-1.8-6.1-5.2-6.1c-1.6,0-2.9,0.5-4,1.5c-1,1-1.6,2.1-1.6,3.5
				v15c0,0.3-0.2,0.5-0.5,0.5h-3.8c-0.3,0-0.5-0.2-0.5-0.5V37.5c0-0.3,0.2-0.5,0.5-0.5h3.8c0.3,0,0.5,0.2,0.5,0.5v16.1
				c0,0.4,0.5,0.6,0.8,0.4C222.6,53.5,223.3,53,224.1,52.8z"/>
			<path class="st0" d="M241.6,44.8c0.6-0.6,1.2-0.8,2-0.8c0.8,0,1.5,0.3,2,0.8c0.6,0.6,0.8,1.2,0.8,2c0,0.8-0.3,1.5-0.8,2.1
				c-0.6,0.6-1.2,0.9-2,0.9c-0.8,0-1.5-0.3-2-0.9c-0.6-0.6-0.9-1.3-0.9-2.1C240.8,46,241.1,45.4,241.6,44.8z M246.1,52.6v23.6
				c0,0.3-0.2,0.5-0.5,0.5h-3.9c-0.3,0-0.5-0.2-0.5-0.5V52.6c0-0.3,0.2-0.5,0.5-0.5h3.9C245.9,52.1,246.1,52.4,246.1,52.6z"/>
		</g>
	</g>
	<g>
		<g>
			<path class="st0" d="M276,75.4h5.4c0.9,0,1.6-0.7,1.6-1.6v-3.4C280.7,72.3,278.5,73.9,276,75.4C276,75.4,276,75.4,276,75.4z"/>
			<path class="st0" d="M269.7,65.3c-0.7-1.6-1.7-3.1-3-4.3c-2.3-2.4-3.8-5.7-4-9c-0.4-5.1,2.1-10.1,6.3-12.9
				c0.9-0.6,1.8-1.1,2.7-1.5c0.4-0.2,0.7-0.3,1.1-0.4h-12.2c-0.9,0-1.6,0.7-1.6,1.6v35c0,0.9,0.7,1.6,1.6,1.6h8.2
				c0.2-0.4,0.4-0.9,0.6-1.3C270.8,71.2,271,68.3,269.7,65.3z"/>
		</g>
		<g>
			<path class="st0" d="M264.2,52.1c-0.4-5.1,2.1-10.1,6.3-12.9c0.9-0.6,1.8-1.1,2.7-1.5c2.8-1.1,5.9-1.3,8.8-0.6
				c0.5,0.2,0.8,0.3,0.8,0.9c0,10,0,20,0,30c0,0.5-0.2,0.8-0.5,1.1c-2.3,1.9-4.7,3.7-7.3,5.2c-0.8,0.5-1.5,0.9-2.3,1.3
				c-0.7,0.4-1.2,0.8-2,1c-0.2,0.1-0.6,0.1-0.8-0.1c-0.2-0.2-0.1-0.6,0.1-0.8c0.3-0.6,0.6-1.2,0.9-1.8c1.3-2.9,1.5-5.8,0.2-8.8
				c-0.7-1.6-1.7-3.1-3-4.3C265.9,58.6,264.5,55.4,264.2,52.1z"/>
		</g>
	</g>
</g>
</svg>
