<?xml version="1.0" encoding="utf-8"?>
<!-- Generator: Adobe Illustrator 24.0.0, SVG Export Plug-In . SVG Version: 6.00 Build 0)  -->
<svg version="1.1" id="Layer_1" xmlns="http://www.w3.org/2000/svg" xmlns:xlink="http://www.w3.org/1999/xlink" x="0px" y="0px"
	 viewBox="0 0 300 122.68" style="enable-background:new 0 0 300 122.68;" xml:space="preserve">
<style type="text/css">
	.st0{fill:#351C2C;}
	.st1{enable-background:new    ;}
	.st2{fill:url(#SVGID_1_);}
	.st3{fill:url(#SVGID_2_);}
	.st4{fill:url(#SVGID_3_);}
</style>
<g>
	<g>
		<g id="logo_9_">
			<g>
				<path class="st0" d="M115.4,58.54l-5.5,17.52h-7.9l-10.65-31.6h9.62l5.5,18.55l5.84-18.55h6.18l5.84,18.55l5.5-18.55h9.62
					l-10.65,31.6h-7.9L115.4,58.54z"/>
				<path class="st0" d="M140.58,59.97c0-2.31,0.42-4.46,1.26-6.43c0.84-1.97,1.98-3.7,3.44-5.17c1.45-1.47,3.14-2.63,5.07-3.47
					c1.93-0.84,4-1.26,6.23-1.26c2.22,0,4.3,0.42,6.23,1.26c1.93,0.84,3.62,2,5.07,3.47c1.45,1.48,2.6,3.2,3.44,5.17
					c0.84,1.97,1.26,4.12,1.26,6.43c0,2.31-0.42,4.46-1.26,6.43c-0.84,1.97-1.98,3.7-3.44,5.17c-1.45,1.47-3.14,2.63-5.07,3.47
					c-1.93,0.84-4,1.26-6.23,1.26c-2.22,0-4.3-0.42-6.23-1.26c-1.93-0.84-3.62-2-5.07-3.47c-1.45-1.47-2.6-3.2-3.44-5.17
					C141,64.42,140.58,62.28,140.58,59.97z M163.37,59.97c0-2.4-0.66-4.31-1.97-5.72c-1.32-1.41-2.93-2.11-4.83-2.11
					s-3.52,0.7-4.83,2.11c-1.32,1.41-1.97,3.31-1.97,5.72c0,2.4,0.66,4.31,1.97,5.72c1.31,1.41,2.93,2.11,4.83,2.11
					s3.52-0.7,4.83-2.11C162.71,64.28,163.37,62.37,163.37,59.97z"/>
				<path class="st0" d="M193.13,44.12c0.41,0,0.79,0.02,1.13,0.07s0.63,0.09,0.85,0.14c0.27,0.05,0.52,0.09,0.75,0.14v9.83
					c-0.27-0.09-0.59-0.2-0.96-0.34c-0.32-0.09-0.68-0.17-1.09-0.24c-0.41-0.07-0.87-0.1-1.37-0.1c-1.73,0-3.13,0.57-4.2,1.7
					c-1.07,1.13-1.6,2.72-1.6,4.76v15.99h-9.22v-31.6h6.83l1.37,3.43c0.55-0.69,1.21-1.3,1.98-1.85c0.64-0.5,1.42-0.95,2.36-1.34
					C190.88,44.31,191.94,44.12,193.13,44.12z"/>
				<path class="st0" d="M216.88,44.12c1.96,0,3.82,0.4,5.6,1.19c1.77,0.79,3.33,1.9,4.68,3.33c1.34,1.43,2.41,3.12,3.21,5.06
					c0.8,1.95,1.19,4.08,1.19,6.39c0,2.31-0.4,4.44-1.19,6.39c-0.8,1.95-1.87,3.64-3.21,5.06c-1.34,1.43-2.9,2.54-4.68,3.33
					c-1.77,0.79-3.64,1.19-5.6,1.19c-1.18,0-2.26-0.14-3.24-0.41c-0.98-0.27-1.81-0.59-2.49-0.95c-0.82-0.41-1.53-0.86-2.12-1.36
					v13.25h-9.22V44.46h6.83l1.37,3.06c0.68-0.63,1.48-1.2,2.39-1.7c0.77-0.41,1.71-0.79,2.8-1.15
					C214.28,44.3,215.51,44.12,216.88,44.12z M222.23,59.97c0-2.22-0.66-4.03-1.97-5.41c-1.32-1.38-2.93-2.08-4.83-2.08
					c-1.91,0-3.52,0.69-4.83,2.08c-1.32,1.38-1.97,3.19-1.97,5.41c0,2.22,0.66,4.03,1.97,5.41c1.31,1.38,2.93,2.07,4.83,2.07
					c1.91,0,3.52-0.69,4.83-2.07C221.57,63.99,222.23,62.19,222.23,59.97z"/>
				<path class="st0" d="M245.23,47.21c0.6-0.63,1.31-1.2,2.14-1.7c0.74-0.41,1.67-0.79,2.8-1.15c1.13-0.36,2.47-0.54,4.04-0.54
					c1.7,0,3.3,0.31,4.8,0.92c1.5,0.61,2.77,1.49,3.83,2.65c1.06,1.15,1.9,2.55,2.52,4.18c0.62,1.63,0.93,3.46,0.93,5.5V75.4h-9.22
					V58.73c0-2.04-0.55-3.63-1.64-4.76c-1.09-1.13-2.52-1.7-4.29-1.7c-1.77,0-3.2,0.57-4.29,1.7c-1.09,1.13-1.64,2.72-1.64,4.76
					V75.4h-9.22V32.61h9.22V47.21z"/>
				<path class="st0" d="M271.9,35.81c0-1.36,0.51-2.55,1.53-3.57c1.02-1.02,2.21-1.53,3.57-1.53c1.36,0,2.55,0.51,3.57,1.53
					c1.02,1.02,1.53,2.21,1.53,3.57c0,1.36-0.51,2.55-1.53,3.57c-1.02,1.02-2.21,1.53-3.57,1.53c-1.36,0-2.55-0.51-3.57-1.53
					C272.41,38.37,271.9,37.17,271.9,35.81z M281.44,76.06h-9.22v-31.6h9.22V76.06z"/>
			</g>
		</g>
		<g id="icone_5_">
			<g class="st1">
				<linearGradient id="SVGID_1_" gradientUnits="userSpaceOnUse" x1="57.7286" y1="100.1034" x2="56.8332" y2="71.1192">
					<stop  offset="0" style="stop-color:#B8005F"/>
					<stop  offset="1" style="stop-color:#FFB02A"/>
				</linearGradient>
				<path class="st2" d="M76.4,63.07c-0.59,1.8-1.21,3.41-1.88,4.83c-0.26,0.55-0.57,1.07-0.85,1.61c-0.85,1.61-1.76,3.17-2.8,4.65
					h0h0L50.69,104.2H31.72l8.69-25.02h18.97l19.11-28.47h0c1.04-1.48,1.95-3.04,2.8-4.65c0.28-0.54,0.59-1.06,0.85-1.61L76.4,63.07
					z"/>
				<linearGradient id="SVGID_2_" gradientUnits="userSpaceOnUse" x1="48.9731" y1="59.695" x2="18.3886" y2="44.899">
					<stop  offset="0" style="stop-color:#B8005F"/>
					<stop  offset="1" style="stop-color:#FFB02A"/>
				</linearGradient>
				<path class="st3" d="M55.86,56.52L55.86,56.52c-0.4,0.03-0.79,0.03-1.18,0.05c-0.39,0.02-0.79,0.05-1.18,0.05
					c-2.95,0-5.81-0.48-8.59-1.45c-2.94-1.02-5.59-2.46-7.99-4.27c-0.48-0.36-0.96-0.72-1.42-1.11c-0.69-0.59-1.34-1.22-1.96-1.87
					c-1.24-1.31-2.35-2.73-3.32-4.28c-0.49-0.78-0.94-1.58-1.36-2.42c-0.63-1.26-1.15-2.56-1.55-3.9c-0.41-1.35-0.7-2.74-0.88-4.18
					c-0.06-0.48-0.11-0.96-0.15-1.45c-0.04-0.49-0.06-0.98-0.07-1.48l0,0l0,0c-0.02-0.89,0.01-1.75,0.06-2.61
					c0.02-0.27,0.05-0.53,0.08-0.8c0.06-0.58,0.12-1.16,0.22-1.73c0.05-0.3,0.11-0.6,0.16-0.89c0.11-0.54-6.9,20.57-6.9,20.57
					c-0.9,2.76-1.31,5.72-1.24,8.88c0.09,4,0.98,7.67,2.66,11.02c1.68,3.35,3.89,6.2,6.64,8.57c2.74,2.37,5.88,4.16,9.41,5.38
					c1.04,0.36,2.09,0.63,3.15,0.86L55.86,56.52z"/>
				<linearGradient id="SVGID_3_" gradientUnits="userSpaceOnUse" x1="61.8915" y1="17.5483" x2="52.3531" y2="37.5846">
					<stop  offset="0" style="stop-color:#B8005F"/>
					<stop  offset="1" style="stop-color:#FFB02A"/>
				</linearGradient>
				<path class="st4" d="M49.3,20.39c-0.6,0.41-1.17,0.88-1.7,1.42c0,0,0,0,0,0c-0.32,0.33-0.61,0.67-0.88,1.03
					c-0.07,0.1-0.14,0.2-0.21,0.29c-0.25,0.35-0.48,0.72-0.68,1.1c-0.04,0.07-0.08,0.13-0.11,0.2c-0.22,0.44-0.41,0.89-0.57,1.36
					c-0.45,1.33-0.67,2.8-0.63,4.41c0.08,3.43,1.25,6.22,3.49,8.39c2.24,2.16,4.95,3.24,8.15,3.24c3.2,0,5.87-1.08,8.01-3.24
					c1.26-1.28,2.13-2.78,2.61-4.5c0.04-0.15,0.09-0.29,0.12-0.44c0.05-0.22,0.09-0.44,0.13-0.66c0.03-0.15,0.06-0.29,0.08-0.44
					c0.04-0.25,0.06-0.51,0.08-0.77c0.01-0.13,0.03-0.25,0.04-0.38c0.02-0.39,0.03-0.79,0.02-1.2c0,0,0,0,0,0
					c-0.08-3.43-1.23-6.22-3.47-8.39c-0.56-0.54-1.15-1.01-1.77-1.42c-0.31-0.2-0.63-0.39-0.95-0.56c-1.63-0.85-3.44-1.27-5.44-1.27
					c-2,0-3.79,0.43-5.37,1.27C49.91,20,49.6,20.18,49.3,20.39z"/>
			</g>
		</g>
		<g id="complemento_1_">
			<path class="st0" d="M101.03,86.09l0.45-0.64c0.41,0.32,0.83,0.47,1.27,0.47c0.2,0,0.37-0.05,0.52-0.15
				c0.15-0.1,0.22-0.23,0.22-0.39c0-0.09-0.02-0.17-0.07-0.24c-0.05-0.07-0.12-0.13-0.22-0.17c-0.1-0.05-0.2-0.08-0.29-0.11
				c-0.09-0.03-0.22-0.06-0.37-0.1c-0.15-0.04-0.28-0.07-0.38-0.1c-0.66-0.22-0.98-0.59-0.98-1.1c0-0.43,0.16-0.76,0.47-0.99
				c0.32-0.23,0.69-0.35,1.11-0.35c0.56,0,1.03,0.16,1.42,0.47l-0.45,0.62c-0.3-0.22-0.6-0.34-0.92-0.34c-0.22,0-0.4,0.05-0.55,0.15
				c-0.15,0.1-0.22,0.23-0.22,0.39c0,0.13,0.06,0.23,0.19,0.3c0.12,0.07,0.32,0.13,0.58,0.2c0.21,0.05,0.39,0.11,0.54,0.17
				c0.15,0.06,0.31,0.14,0.48,0.24c0.17,0.1,0.3,0.24,0.4,0.4c0.09,0.16,0.14,0.35,0.14,0.55c0,0.39-0.16,0.7-0.47,0.95
				s-0.69,0.36-1.12,0.36C102.1,86.68,101.52,86.49,101.03,86.09z"/>
			<path class="st0" d="M105.86,86.05c-0.42-0.42-0.63-0.96-0.63-1.59c0-0.64,0.21-1.17,0.63-1.59c0.42-0.42,0.95-0.64,1.58-0.64
				s1.16,0.21,1.58,0.64c0.42,0.42,0.63,0.96,0.63,1.59c0,0.64-0.21,1.17-0.63,1.59c-0.42,0.42-0.95,0.64-1.58,0.64
				S106.28,86.47,105.86,86.05z M106.47,83.45c-0.26,0.27-0.38,0.61-0.38,1c0,0.4,0.13,0.73,0.38,1s0.58,0.41,0.97,0.41
				s0.71-0.14,0.97-0.41s0.38-0.61,0.38-1c0-0.39-0.13-0.73-0.38-1s-0.58-0.41-0.97-0.41S106.73,83.18,106.47,83.45z"/>
			<path class="st0" d="M113.43,80.1l-0.18,0.79c-0.09-0.02-0.19-0.04-0.32-0.04c-0.29,0-0.5,0.1-0.66,0.3
				c-0.11,0.15-0.16,0.4-0.16,0.76v0.39h1.32v0.77h-1.32v3.51h-0.86v-3.51h-1v-0.77h1v-0.36c0-0.54,0.09-0.94,0.27-1.2
				c0.33-0.47,0.8-0.71,1.4-0.71C113.12,80.03,113.29,80.06,113.43,80.1z"/>
			<path class="st0" d="M117.08,85.81l0.17,0.78c-0.18,0.06-0.41,0.09-0.67,0.09c-0.51,0-0.91-0.17-1.21-0.5
				c-0.23-0.26-0.35-0.63-0.35-1.14v-1.96h-1.09v-0.77h1.09v-1.18h0.86v1.18h1.37v0.77h-1.37v2c0,0.27,0.04,0.45,0.13,0.55
				c0.12,0.15,0.32,0.23,0.59,0.23C116.8,85.86,116.95,85.85,117.08,85.81z"/>
			<path class="st0" d="M121.22,82.31h0.6l1.17,2.92l1.17-2.92h0.89l-1.74,4.28h-0.6l-1.2-3.01l-1.2,3.01h-0.6l-1.74-4.28h0.89
				l1.17,2.92L121.22,82.31z"/>
			<path class="st0" d="M129.01,86.59V86.2c-0.36,0.32-0.8,0.48-1.32,0.48c-0.4,0-0.76-0.09-1.07-0.28c-0.33-0.19-0.6-0.46-0.8-0.81
				s-0.3-0.72-0.3-1.14c0-0.42,0.1-0.8,0.3-1.15c0.2-0.35,0.47-0.62,0.8-0.81c0.31-0.18,0.66-0.27,1.05-0.27
				c0.52,0,0.96,0.16,1.34,0.48v-0.39h0.84v4.28H129.01z M128.98,85.25v-1.6c-0.31-0.41-0.72-0.61-1.22-0.61
				c-0.4,0-0.73,0.14-0.99,0.41c-0.26,0.28-0.39,0.61-0.39,1c0,0.39,0.13,0.72,0.41,1c0.27,0.28,0.61,0.41,1.02,0.41
				C128.29,85.86,128.68,85.66,128.98,85.25z"/>
			<path class="st0" d="M133.86,82.25l-0.1,0.83c-0.09-0.02-0.2-0.04-0.34-0.04c-0.22,0-0.44,0.07-0.65,0.21
				c-0.22,0.14-0.38,0.31-0.51,0.51v2.83h-0.87v-4.28h0.84v0.49c0.12-0.16,0.29-0.3,0.51-0.41c0.22-0.11,0.48-0.17,0.77-0.17
				C133.64,82.22,133.75,82.23,133.86,82.25z"/>
			<path class="st0" d="M138.49,84.63h-3.3c0.02,0.36,0.17,0.67,0.43,0.92c0.26,0.25,0.58,0.37,0.95,0.37
				c0.47,0,0.88-0.19,1.23-0.58l0.56,0.54c-0.18,0.23-0.42,0.42-0.73,0.57c-0.31,0.15-0.67,0.23-1.07,0.23
				c-0.63,0-1.15-0.21-1.58-0.64c-0.43-0.42-0.64-0.96-0.64-1.59c0-0.64,0.2-1.18,0.59-1.6c0.39-0.42,0.89-0.63,1.5-0.63
				c0.59,0,1.09,0.21,1.48,0.64c0.39,0.42,0.58,0.96,0.58,1.59C138.5,84.52,138.5,84.58,138.49,84.63z M136.47,82.98
				c-0.28,0-0.53,0.09-0.76,0.26c-0.22,0.17-0.37,0.4-0.45,0.67h2.33c-0.06-0.27-0.2-0.49-0.41-0.66
				C136.97,83.06,136.73,82.98,136.47,82.98z"/>
			<path class="st0" d="M142.17,81.19c-0.11-0.11-0.16-0.24-0.16-0.4s0.05-0.29,0.16-0.41s0.24-0.17,0.4-0.17
				c0.16,0,0.29,0.06,0.41,0.17c0.11,0.11,0.17,0.25,0.17,0.41s-0.06,0.29-0.17,0.4c-0.11,0.11-0.25,0.16-0.41,0.16
				C142.41,81.36,142.28,81.3,142.17,81.19z M142.14,86.59v-4.28h0.87v4.28H142.14z"/>
			<path class="st0" d="M145.39,82.31v0.41c0.35-0.33,0.77-0.5,1.28-0.5c0.64,0,1.16,0.25,1.56,0.76c0.28,0.35,0.42,0.86,0.42,1.52
				v2.09h-0.87v-2.14c0-0.45-0.09-0.78-0.26-0.99c-0.22-0.28-0.51-0.42-0.88-0.42c-0.49,0-0.9,0.2-1.23,0.61v2.94h-0.87v-4.28
				H145.39z"/>
			<path class="st0" d="M152.53,85.81l0.17,0.78c-0.18,0.06-0.41,0.09-0.67,0.09c-0.51,0-0.91-0.17-1.21-0.5
				c-0.23-0.26-0.35-0.63-0.35-1.14v-1.96h-1.09v-0.77h1.09v-1.18h0.86v1.18h1.37v0.77h-1.37v2c0,0.27,0.04,0.45,0.13,0.55
				c0.12,0.15,0.32,0.23,0.59,0.23C152.25,85.86,152.41,85.85,152.53,85.81z"/>
			<path class="st0" d="M157.52,84.63h-3.3c0.02,0.36,0.17,0.67,0.43,0.92c0.26,0.25,0.58,0.37,0.95,0.37
				c0.47,0,0.88-0.19,1.23-0.58l0.56,0.54c-0.18,0.23-0.42,0.42-0.73,0.57c-0.31,0.15-0.67,0.23-1.07,0.23
				c-0.63,0-1.15-0.21-1.58-0.64c-0.43-0.42-0.64-0.96-0.64-1.59c0-0.64,0.2-1.18,0.59-1.6c0.39-0.42,0.89-0.63,1.5-0.63
				c0.59,0,1.09,0.21,1.48,0.64c0.39,0.42,0.58,0.96,0.58,1.59C157.53,84.52,157.53,84.58,157.52,84.63z M155.5,82.98
				c-0.28,0-0.53,0.09-0.76,0.26c-0.22,0.17-0.37,0.4-0.45,0.67h2.33c-0.06-0.27-0.2-0.49-0.41-0.66
				C156,83.06,155.76,82.98,155.5,82.98z"/>
			<path class="st0" d="M158.72,86.59v-6.47h0.87v6.47H158.72z"/>
			<path class="st0" d="M161.13,86.59v-6.47h0.87v6.47H161.13z"/>
			<path class="st0" d="M163.57,81.19c-0.11-0.11-0.16-0.24-0.16-0.4s0.05-0.29,0.16-0.41s0.24-0.17,0.4-0.17
				c0.16,0,0.29,0.06,0.41,0.17c0.11,0.11,0.17,0.25,0.17,0.41s-0.06,0.29-0.17,0.4c-0.11,0.11-0.25,0.16-0.41,0.16
				C163.81,81.36,163.68,81.3,163.57,81.19z M163.54,86.59v-4.28h0.87v4.28H163.54z"/>
			<path class="st0" d="M169.05,86.22c-0.36,0.31-0.79,0.46-1.29,0.46c-0.4,0-0.76-0.09-1.07-0.28c-0.33-0.19-0.6-0.46-0.8-0.81
				s-0.3-0.72-0.3-1.14c0-0.42,0.1-0.8,0.3-1.15c0.2-0.35,0.47-0.62,0.8-0.81c0.31-0.18,0.66-0.27,1.05-0.27
				c0.52,0,0.96,0.16,1.34,0.48v-0.39h0.84v4.1c0,0.6-0.09,1.07-0.26,1.4c-0.18,0.33-0.42,0.59-0.74,0.78
				c-0.32,0.18-0.69,0.28-1.11,0.28c-0.5,0-0.94-0.1-1.3-0.3c-0.36-0.2-0.62-0.43-0.79-0.69l0.64-0.59
				c0.38,0.51,0.85,0.76,1.41,0.76c0.48,0,0.83-0.16,1.04-0.49c0.16-0.24,0.24-0.61,0.24-1.1V86.22z M169.05,85.25v-1.6
				c-0.31-0.41-0.72-0.61-1.22-0.61c-0.4,0-0.73,0.14-0.99,0.41c-0.26,0.28-0.39,0.61-0.39,1c0,0.39,0.13,0.72,0.41,1
				c0.27,0.28,0.61,0.41,1.02,0.41C168.36,85.86,168.75,85.66,169.05,85.25z"/>
			<path class="st0" d="M175.24,84.63h-3.3c0.02,0.36,0.17,0.67,0.43,0.92c0.26,0.25,0.58,0.37,0.95,0.37
				c0.47,0,0.88-0.19,1.23-0.58l0.56,0.54c-0.18,0.23-0.42,0.42-0.73,0.57c-0.31,0.15-0.67,0.23-1.07,0.23
				c-0.63,0-1.15-0.21-1.58-0.64c-0.43-0.42-0.64-0.96-0.64-1.59c0-0.64,0.2-1.18,0.59-1.6c0.39-0.42,0.89-0.63,1.5-0.63
				c0.59,0,1.09,0.21,1.48,0.64c0.39,0.42,0.58,0.96,0.58,1.59C175.24,84.52,175.24,84.58,175.24,84.63z M173.21,82.98
				c-0.28,0-0.53,0.09-0.76,0.26s-0.37,0.4-0.45,0.67h2.33c-0.06-0.27-0.2-0.49-0.41-0.66C173.71,83.06,173.47,82.98,173.21,82.98z"
				/>
			<path class="st0" d="M177.27,82.31v0.41c0.35-0.33,0.77-0.5,1.28-0.5c0.64,0,1.16,0.25,1.56,0.76c0.28,0.35,0.42,0.86,0.42,1.52
				v2.09h-0.86v-2.14c0-0.45-0.09-0.78-0.26-0.99c-0.22-0.28-0.51-0.42-0.88-0.42c-0.49,0-0.9,0.2-1.23,0.61v2.94h-0.87v-4.28
				H177.27z"/>
			<path class="st0" d="M185.14,85.2l0.66,0.48c-0.18,0.3-0.44,0.54-0.79,0.72c-0.35,0.19-0.72,0.28-1.11,0.28
				c-0.66,0-1.2-0.21-1.63-0.64c-0.43-0.42-0.65-0.96-0.65-1.59c0-0.64,0.21-1.17,0.64-1.59c0.42-0.42,0.96-0.64,1.59-0.64
				c0.36,0,0.71,0.08,1.03,0.25c0.32,0.17,0.59,0.39,0.79,0.68l-0.64,0.54c-0.31-0.43-0.7-0.65-1.18-0.65
				c-0.39,0-0.71,0.13-0.97,0.4c-0.26,0.27-0.39,0.6-0.39,1.01c0,0.42,0.13,0.76,0.4,1.02c0.27,0.26,0.61,0.39,1.02,0.39
				C184.4,85.86,184.81,85.64,185.14,85.2z"/>
			<path class="st0" d="M190.58,84.63h-3.3c0.02,0.36,0.17,0.67,0.43,0.92c0.26,0.25,0.58,0.37,0.95,0.37
				c0.47,0,0.88-0.19,1.23-0.58l0.56,0.54c-0.18,0.23-0.42,0.42-0.73,0.57c-0.31,0.15-0.67,0.23-1.07,0.23
				c-0.63,0-1.15-0.21-1.58-0.64c-0.43-0.42-0.64-0.96-0.64-1.59c0-0.64,0.2-1.18,0.59-1.6c0.39-0.42,0.89-0.63,1.5-0.63
				c0.59,0,1.09,0.21,1.48,0.64c0.39,0.42,0.58,0.96,0.58,1.59C190.59,84.52,190.59,84.58,190.58,84.63z M188.56,82.98
				c-0.28,0-0.53,0.09-0.76,0.26c-0.22,0.17-0.37,0.4-0.45,0.67h2.33c-0.06-0.27-0.2-0.49-0.41-0.66
				C189.06,83.06,188.82,82.98,188.56,82.98z"/>
		</g>
	</g>
</g>
</svg>
