<?xml version="1.0" encoding="utf-8"?>
<!-- Generator: Adobe Illustrator 24.0.0, SVG Export Plug-In . SVG Version: 6.00 Build 0)  -->
<svg version="1.1" id="Layer_1" xmlns="http://www.w3.org/2000/svg" xmlns:xlink="http://www.w3.org/1999/xlink" x="0px" y="0px"
	 viewBox="0 0 300 122.7" style="enable-background:new 0 0 300 122.7;" xml:space="preserve">
<style type="text/css">
	.st0{clip-path:url(#SVGID_2_);}
	.st1{fill:url(#SVGID_3_);}
	.st2{fill:#1A3351;}
</style>
<g>
	<defs>
		<rect id="SVGID_1_" x="8.3" y="35.6" width="283.3" height="51.5"/>
	</defs>
	<clipPath id="SVGID_2_">
		<use xlink:href="#SVGID_1_"  style="overflow:visible;"/>
	</clipPath>
	<g class="st0">
		
			<linearGradient id="SVGID_3_" gradientUnits="userSpaceOnUse" x1="261.4708" y1="63.2453" x2="291.6435" y2="63.2453" gradientTransform="matrix(1 0 0 -1 0 124)">
			<stop  offset="0" style="stop-color:#F96B1C"/>
			<stop  offset="0.514" style="stop-color:#EF4009"/>
			<stop  offset="1" style="stop-color:#C3160B"/>
		</linearGradient>
		<path class="st1" d="M273.4,69.1c-3.4,4.2-5,5-8.3,8.5c-1.9,2,3.8,0.8,4.5,0.6c4.3-1.1,8.4-3.2,12.1-5.6c4.6-3.2,8.8-7.1,9.7-12.7
			c1.7-10.1-7.4-18.4-17.2-17.1c-2,0.3-3.8,0.9-5.5,1.8c-0.3,0.1-0.6,0.4-0.9,0.5c-1.3,0.9-2.4,1.9-3.3,3.1c-1.1,1.5-2,3.2-2.4,5.1
			c-0.5,2-0.6,3.9-0.4,5.7c0.3,1.7,0.9,3.2,1.7,4.5c0.9,1.3,1.9,2.4,3.1,3.2c1.3,0.9,2.6,1.4,4,1.8C271,68.7,272.9,69,273.4,69.1z"
			/>
		<path class="st2" d="M20.1,51.2c1.8,0,3.5,0.4,5,1.2c1.4,0.8,2.5,2,3.2,3.5c0.8,1.5,1.1,3.3,1.1,5.4v14.9c0,0.3-0.2,0.5-0.5,0.5
			H25c-0.3,0-0.5-0.2-0.5-0.5V61.9c0-4.2-1.8-6.3-5.4-6.3c-1.7,0-3.1,0.5-4.2,1.5c-1.1,1-1.6,2.2-1.6,3.7v15.4
			c0,0.3-0.2,0.5-0.5,0.5h-4c-0.3,0-0.5-0.2-0.5-0.5V51.8c0-0.3,0.2-0.5,0.5-0.5h3.9c0.3,0,0.5,0.2,0.5,0.5v0.6
			c0,0.4,0.5,0.7,0.8,0.4C15.7,51.7,17.7,51.2,20.1,51.2z"/>
		<path class="st2" d="M34.5,43.7c0.6-0.6,1.3-0.9,2.1-0.9c0.8,0,1.5,0.3,2.1,0.9c0.6,0.6,0.9,1.3,0.9,2.1c0,0.8-0.3,1.5-0.9,2.1
			c-0.6,0.6-1.3,0.9-2.1,0.9c-0.8,0-1.5-0.3-2.1-0.9c-0.6-0.6-0.9-1.3-0.9-2.1C33.6,45,33.9,44.3,34.5,43.7z M39.1,51.8v24.4
			c0,0.3-0.2,0.5-0.5,0.5h-4c-0.3,0-0.5-0.2-0.5-0.5V51.8c0-0.3,0.2-0.5,0.5-0.5h4C38.8,51.3,39.1,51.5,39.1,51.8z"/>
		<path class="st2" d="M55.9,51.2c1.8,0,3.5,0.4,5,1.2c1.4,0.8,2.5,2,3.2,3.5c0.8,1.5,1.1,3.3,1.1,5.4v14.9c0,0.3-0.2,0.5-0.5,0.5
			h-3.9c-0.3,0-0.5-0.2-0.5-0.5V61.9c0-4.2-1.8-6.3-5.4-6.3c-1.7,0-3.1,0.5-4.2,1.5c-1.1,1-1.6,2.2-1.6,3.7v15.4
			c0,0.3-0.2,0.5-0.5,0.5h-3.9c-0.3,0-0.5-0.2-0.5-0.5V51.8c0-0.3,0.2-0.5,0.5-0.5h3.9c0.3,0,0.5,0.2,0.5,0.5v0.6
			c0,0.4,0.5,0.7,0.8,0.4C51.5,51.7,53.5,51.2,55.9,51.2z"/>
		<path class="st2" d="M71.1,57.6c1.1-1.9,2.7-3.5,4.6-4.6c2-1.1,4.1-1.7,6.4-1.7c2.5,0,4.6,0.5,6.4,1.6c2,1.2,3.6,2.8,4.7,4.9
			c1.1,2,1.5,4.2,1.4,6.7c0,0.3-0.2,0.5-0.5,0.5H75c-0.3,0-0.6,0.3-0.5,0.6c0.2,0.9,0.5,1.9,0.9,2.8c0,0,0,0,0,0
			c0.7,1.2,1.7,2.2,3,2.8c1.3,0.7,2.7,1,4.3,1c3.2,0,5.6-1.3,7.4-4c0.2-0.2,0.4-0.3,0.7-0.2l3,1.6c0.3,0.1,0.4,0.5,0.2,0.7
			c-1.1,1.9-2.6,3.4-4.5,4.5c-2.1,1.2-4.4,1.8-7,1.8c-2.5,0-4.8-0.6-6.8-1.7c-2-1.2-3.6-2.7-4.7-4.7c-1.1-1.9-1.7-4.1-1.7-6.5
			C69.4,61.6,70,59.5,71.1,57.6z M87,57.1c-1.4-0.9-3-1.4-4.7-1.4c-1.8,0-3.5,0.5-4.8,1.5c-1.1,0.8-1.9,1.8-2.3,2.9
			c-0.1,0.3,0.1,0.7,0.5,0.7h13.3c0.4,0,0.6-0.4,0.5-0.7C89,58.9,88.2,57.9,87,57.1z"/>
		<path class="st2" d="M99.9,51.3l7.1,16.3c0.2,0.4,0.8,0.4,1,0l6-16c0.1-0.2,0.3-0.3,0.5-0.3h2.7c0.2,0,0.4,0.1,0.5,0.3l6,16
			c0.2,0.4,0.8,0.5,1,0l7-16c0.1-0.2,0.3-0.3,0.5-0.3h4.5c0.4,0,0.6,0.4,0.5,0.7l-11.3,24.4c-0.1,0.2-0.3,0.3-0.5,0.3h-2.6
			c-0.2,0-0.4-0.1-0.5-0.3l-5.9-15.7c-0.2-0.4-0.8-0.4-1,0l-5.9,15.7c-0.1,0.2-0.3,0.3-0.5,0.3h-2.5c-0.2,0-0.4-0.1-0.5-0.3L94.6,52
			c-0.2-0.3,0.1-0.7,0.5-0.7L99.9,51.3z"/>
		<path class="st2" d="M138.4,60.5c0.3-1.1,0.8-2.1,1.4-3.1c1.2-2,2.8-3.5,4.8-4.6c2-1.1,4.3-1.6,6.8-1.6c2.5,0,4.8,0.5,6.8,1.6
			c2.1,1.1,3.7,2.6,4.9,4.6s1.7,4,1.7,6.3c0,2.6-0.6,4.8-1.7,6.7c-1.2,1.9-2.8,3.5-4.9,4.6c-2.1,1.1-4.3,1.6-6.8,1.6
			c-2.5,0-4.8-0.5-6.8-1.6c-2.1-1.2-3.8-2.7-4.9-4.7c-1.1-1.9-1.7-4.2-1.7-6.6C137.9,62.7,138,61.6,138.4,60.5z M144,68
			c0.8,1.3,1.8,2.3,3,3c1.3,0.7,2.7,1.1,4.3,1.1c1.6,0,3.1-0.4,4.3-1.1c1.3-0.8,2.3-1.7,3-3c0.7-1.2,1-2.6,1-4.3
			c0-1.3-0.4-2.6-1.1-3.8c-0.7-1.3-1.7-2.3-3-3c-1.3-0.7-2.7-1.1-4.3-1.1c-1.7,0-3.1,0.4-4.3,1.1c-1.3,0.8-2.3,1.7-3,2.9
			c-0.7,1.2-1.1,2.5-1.1,3.9C142.9,65.3,143.3,66.7,144,68z"/>
		<path class="st2" d="M174,57.7c-0.8,1-1.2,2.8-1.2,5.4v13c0,0.3-0.2,0.5-0.5,0.5h-4c-0.3,0-0.5-0.2-0.5-0.5l0.1-13
			c0-3.9,0.9-6.8,2.6-8.7c1.7-1.9,4.3-2.8,7.9-2.8c1.5,0,2.5,0,3,0c0.3,0,0.5,0.2,0.5,0.5v3.5c0,0.3-0.2,0.5-0.5,0.5l-3-0.1
			C176.3,56.1,174.8,56.7,174,57.7z"/>
		<path class="st2" d="M209,70.3c-1,2-2.5,3.5-4.3,4.6c-1.9,1.2-4,1.7-6.3,1.7c-1.7,0-3.3-0.4-4.8-1.1c-1.1-0.5-2-1.2-2.8-2
			c-0.3-0.3-0.9-0.1-0.9,0.4v12.6c0,0.3-0.2,0.5-0.5,0.5h-3.9c-0.3,0-0.5-0.2-0.5-0.5V51.8c0-0.3,0.2-0.5,0.5-0.5h3.9
			c0.3,0,0.5,0.2,0.5,0.5v1.8c0,0.4,0.5,0.7,0.9,0.4c0.9-0.8,1.8-1.4,2.9-1.8c1.5-0.6,3-0.9,4.6-0.9c2.3,0,4.4,0.6,6.2,1.7
			c1.9,1.1,3.3,2.7,4.4,4.6c1.1,1.9,1.6,3.9,1.6,6.2C210.6,66.1,210.1,68.3,209,70.3z M204.5,59.7c-0.7-1.2-1.6-2.2-2.8-2.9
			c-1.3-0.7-2.6-1-4-1c-1.5,0-2.9,0.3-4.1,1c-1.2,0.7-2.1,1.7-2.8,2.9c-0.7,1.4-1,2.7-1,3.9c0,1.6,0.3,3,1,4.3
			c0.7,1.3,1.6,2.3,2.8,3c1.3,0.7,2.6,1.1,4.1,1.1c1.5,0,2.8-0.4,4-1.1c1.2-0.7,2.1-1.7,2.8-3c0.7-1.3,1-2.7,1-4.4
			C205.5,62.3,205.2,60.9,204.5,59.7z"/>
		<path class="st2" d="M221.6,51.9c1.2-0.4,2.4-0.7,3.8-0.7c1.9,0,3.6,0.4,5,1.1c1.4,0.8,2.5,2,3.2,3.6c0.8,1.6,1.1,3.4,1.1,5.4
			v14.8c0,0.3-0.2,0.5-0.5,0.5h-3.9c-0.3,0-0.5-0.2-0.5-0.5V62c0-4.2-1.8-6.3-5.4-6.3c-1.6,0-3,0.5-4.1,1.5c-1.1,1-1.6,2.2-1.6,3.6
			v15.4c0,0.3-0.2,0.5-0.5,0.5h-3.9c-0.3,0-0.5-0.2-0.5-0.5v-40c0-0.3,0.2-0.5,0.5-0.5h3.9c0.3,0,0.5,0.2,0.5,0.5v16.5
			c0,0.4,0.5,0.7,0.8,0.4C220.1,52.6,220.8,52.2,221.6,51.9z"/>
		<path class="st2" d="M239.8,43.7c0.6-0.6,1.3-0.9,2.1-0.9c0.8,0,1.5,0.3,2.1,0.9c0.6,0.6,0.9,1.3,0.9,2.1c0,0.8-0.3,1.5-0.9,2.1
			c-0.6,0.6-1.3,0.9-2.1,0.9c-0.8,0-1.5-0.3-2.1-0.9c-0.6-0.6-0.9-1.3-0.9-2.1C238.9,45,239.2,44.3,239.8,43.7z M244.4,51.8v24.4
			c0,0.3-0.2,0.5-0.5,0.5h-4c-0.3,0-0.5-0.2-0.5-0.5V51.8c0-0.3,0.2-0.5,0.5-0.5h4C244.2,51.3,244.4,51.5,244.4,51.8z"/>
	</g>
</g>
</svg>
