<?xml version="1.0" encoding="utf-8"?>
<!-- Generator: Adobe Illustrator 24.0.0, SVG Export Plug-In . SVG Version: 6.00 Build 0)  -->
<svg version="1.1" id="Layer_1" xmlns="http://www.w3.org/2000/svg" xmlns:xlink="http://www.w3.org/1999/xlink" x="0px" y="0px"
	 viewBox="0 0 300 122.7" style="enable-background:new 0 0 300 122.7;" xml:space="preserve">
<style type="text/css">
	.st0{fill:#193250;}
</style>
<g>
	<path class="st0" d="M268.3,68.8c-3.3,4-4.8,4.8-8,8.2c-1.8,2,3.7,0.7,4.3,0.6c4.2-1.1,8.1-3.1,11.6-5.4c4.4-3.1,8.5-6.9,9.3-12.2
		c1.6-9.7-7.1-17.6-16.5-16.4c-2,0.2-3.7,0.9-5.3,1.7c-0.2,0.1-0.6,0.4-0.9,0.5c-1.2,0.9-2.3,1.8-3.2,2.9c-1.1,1.5-2,3.1-2.3,4.9
		c-0.5,2-0.6,3.8-0.4,5.5c0.2,1.6,0.9,3.1,1.6,4.3c0.9,1.2,1.8,2.3,2.9,3.1c1.2,0.9,2.4,1.3,3.8,1.7C266,68.4,267.8,68.6,268.3,68.8
		"/>
	<g>
		<path class="st0" d="M25.5,51.5c1.8,0,3.4,0.4,4.8,1.1c1.3,0.8,2.4,1.9,3.1,3.4s1.1,3.2,1.1,5.2v14.3c0,0.3-0.2,0.5-0.5,0.5h-3.7
			c-0.3,0-0.5-0.2-0.5-0.5V61.8c0-4-1.7-6.1-5.2-6.1c-1.6,0-2.9,0.5-4,1.4c-1.1,0.9-1.6,2.1-1.6,3.5v14.8c0,0.3-0.2,0.5-0.5,0.5
			h-3.8c-0.3,0-0.5-0.2-0.5-0.5V52.2c0-0.3,0.2-0.5,0.5-0.5h3.8c0.3,0,0.5,0.2,0.5,0.5v0.6c0,0.4,0.5,0.6,0.8,0.4
			C21.3,52.1,23.2,51.5,25.5,51.5z"/>
		<path class="st0" d="M39.2,44.4c0.6-0.6,1.2-0.8,2-0.8c0.8,0,1.5,0.3,2,0.8c0.6,0.5,0.8,1.2,0.8,2c0,0.8-0.3,1.5-0.8,2.1
			c-0.6,0.6-1.2,0.9-2,0.9c-0.8,0-1.4-0.3-2-0.9c-0.6-0.6-0.9-1.3-0.9-2.1C38.4,45.6,38.7,45,39.2,44.4z M43.7,52.1v23.4
			c0,0.3-0.2,0.5-0.5,0.5h-3.8c-0.3,0-0.5-0.2-0.5-0.5V52.1c0-0.3,0.2-0.5,0.5-0.5h3.8C43.4,51.6,43.7,51.9,43.7,52.1z"/>
		<path class="st0" d="M59.8,51.5c1.8,0,3.4,0.4,4.8,1.1c1.3,0.8,2.4,1.9,3.1,3.4c0.7,1.5,1.1,3.2,1.1,5.2v14.3
			c0,0.3-0.2,0.5-0.5,0.5h-3.7c-0.3,0-0.5-0.2-0.5-0.5V61.8c0-4-1.7-6.1-5.2-6.1c-1.6,0-2.9,0.5-4,1.4c-1.1,0.9-1.6,2.1-1.6,3.5
			v14.8c0,0.3-0.2,0.5-0.5,0.5h-3.8c-0.3,0-0.5-0.2-0.5-0.5V52.2c0-0.3,0.2-0.5,0.5-0.5h3.8c0.3,0,0.5,0.2,0.5,0.5v0.6
			c0,0.4,0.5,0.6,0.8,0.4C55.6,52.1,57.5,51.5,59.8,51.5z"/>
		<path class="st0" d="M74.4,57.7c1.1-1.8,2.6-3.3,4.4-4.4c1.9-1.1,3.9-1.7,6.2-1.7c2.4,0,4.4,0.5,6.2,1.5c1.9,1.1,3.4,2.7,4.5,4.7
			c1,1.9,1.5,4,1.4,6.4c0,0.3-0.2,0.5-0.5,0.5H78.1c-0.3,0-0.5,0.3-0.5,0.6c0.1,0.9,0.4,1.8,0.9,2.7c0,0,0,0,0,0
			c0.7,1.2,1.7,2.1,2.9,2.7c1.2,0.6,2.6,1,4.2,1c3,0,5.4-1.3,7.1-3.9c0.1-0.2,0.4-0.3,0.7-0.2l2.8,1.5c0.2,0.1,0.3,0.4,0.2,0.7
			c-1,1.8-2.5,3.3-4.3,4.3c-2,1.2-4.2,1.8-6.7,1.8c-2.4,0-4.6-0.5-6.5-1.6c-1.9-1.1-3.4-2.6-4.5-4.5s-1.6-3.9-1.6-6.2
			C72.7,61.6,73.3,59.6,74.4,57.7z M89.6,57.3c-1.4-0.9-2.9-1.4-4.5-1.4c-1.8,0-3.3,0.5-4.6,1.4c-1.1,0.8-1.8,1.7-2.2,2.8
			c-0.1,0.3,0.1,0.7,0.5,0.7h12.8c0.3,0,0.6-0.3,0.5-0.7C91.5,59,90.7,58,89.6,57.3z"/>
		<path class="st0" d="M102,51.6l6.8,15.7c0.2,0.4,0.8,0.4,0.9,0l5.7-15.3c0.1-0.2,0.3-0.3,0.5-0.3h2.6c0.2,0,0.4,0.1,0.5,0.3
			l5.7,15.3c0.2,0.4,0.8,0.4,0.9,0l6.7-15.4c0.1-0.2,0.3-0.3,0.5-0.3h4.3c0.4,0,0.6,0.4,0.5,0.7l-10.8,23.4
			c-0.1,0.2-0.3,0.3-0.5,0.3h-2.5c-0.2,0-0.4-0.1-0.5-0.3l-5.6-15.1c-0.2-0.4-0.8-0.4-0.9,0l-5.6,15.1c-0.1,0.2-0.3,0.3-0.5,0.3
			h-2.4c-0.2,0-0.4-0.1-0.5-0.3L96.9,52.4c-0.1-0.3,0.1-0.7,0.5-0.7L102,51.6L102,51.6z"/>
		<path class="st0" d="M138.8,60.5c0.3-1.1,0.8-2.1,1.3-2.9c1.1-1.9,2.6-3.4,4.6-4.4c1.9-1,4.1-1.6,6.5-1.6s4.6,0.5,6.5,1.6
			c2,1.1,3.6,2.5,4.7,4.4c1.1,1.8,1.7,3.8,1.7,6c0,2.5-0.5,4.6-1.6,6.4c-1.1,1.9-2.7,3.3-4.7,4.4c-2,1.1-4.1,1.6-6.5,1.6
			c-2.4,0-4.6-0.5-6.5-1.6c-2-1.1-3.6-2.6-4.7-4.5c-1.1-1.9-1.7-4-1.7-6.4C138.4,62.6,138.5,61.6,138.8,60.5z M144.2,67.8
			c0.7,1.2,1.7,2.2,2.9,2.8c1.2,0.7,2.6,1,4.1,1c1.6,0,3-0.3,4.1-1c1.2-0.7,2.2-1.7,2.9-2.9s1-2.5,1-4.1c0-1.3-0.3-2.5-1-3.7
			c-0.7-1.2-1.6-2.2-2.9-2.8c-1.2-0.7-2.6-1-4.1-1c-1.6,0-3,0.3-4.1,1c-1.2,0.7-2.2,1.7-2.9,2.8c-0.7,1.1-1,2.4-1,3.7
			C143.2,65.1,143.5,66.5,144.2,67.8z"/>
		<path class="st0" d="M173,57.8c-0.8,1-1.2,2.7-1.2,5.2v12.5c0,0.3-0.2,0.5-0.5,0.5h-3.8c-0.3,0-0.5-0.2-0.5-0.5l0-12.5
			c0-3.8,0.9-6.6,2.4-8.4c1.6-1.8,4.1-2.7,7.6-2.7c1.4,0,2.4,0,2.9,0c0.3,0,0.5,0.2,0.5,0.5v3.3c0,0.3-0.2,0.5-0.5,0.5l-2.9,0
			C175.2,56.3,173.8,56.8,173,57.8z"/>
		<path class="st0" d="M206.6,69.9c-1,1.9-2.4,3.4-4.2,4.5c-1.8,1.1-3.8,1.7-6,1.7c-1.6,0-3.2-0.3-4.6-1.1c-1-0.5-1.9-1.1-2.7-1.9
			c-0.3-0.3-0.9-0.1-0.9,0.4v12.1c0,0.3-0.2,0.5-0.5,0.5H184c-0.3,0-0.5-0.2-0.5-0.5V52.1c0-0.3,0.2-0.5,0.5-0.5h3.8
			c0.3,0,0.5,0.2,0.5,0.5v1.7c0,0.4,0.5,0.7,0.8,0.4c0.8-0.7,1.8-1.3,2.8-1.7c1.4-0.6,2.9-0.9,4.4-0.9c2.2,0,4.2,0.5,6,1.6
			c1.8,1.1,3.2,2.6,4.2,4.5c1,1.8,1.5,3.8,1.5,5.9C208,65.9,207.6,68,206.6,69.9z M202.3,59.7c-0.6-1.2-1.5-2.1-2.7-2.7
			c-1.2-0.7-2.5-1-3.8-1c-1.5,0-2.8,0.3-3.9,1c-1.1,0.7-2,1.6-2.7,2.8c-0.6,1.3-0.9,2.6-0.9,3.8c0,1.5,0.3,2.9,1,4.1
			c0.6,1.2,1.5,2.2,2.7,2.9c1.2,0.7,2.5,1,3.9,1c1.4,0,2.7-0.3,3.8-1c1.1-0.7,2-1.6,2.7-2.8s1-2.6,1-4.2
			C203.2,62.2,202.9,60.9,202.3,59.7z"/>
		<path class="st0" d="M218.7,52.3c1.1-0.4,2.3-0.6,3.6-0.6c1.8,0,3.4,0.4,4.8,1.1c1.3,0.8,2.4,1.9,3.1,3.4c0.7,1.5,1.1,3.2,1.1,5.2
			v14.2c0,0.3-0.2,0.5-0.5,0.5H227c-0.3,0-0.5-0.2-0.5-0.5V61.9c0-4-1.7-6.1-5.2-6.1c-1.6,0-2.9,0.5-3.9,1.4c-1.1,1-1.6,2.1-1.6,3.4
			v14.8c0,0.3-0.2,0.5-0.5,0.5h-3.8c-0.3,0-0.5-0.2-0.5-0.5V37.1c0-0.3,0.2-0.5,0.5-0.5h3.8c0.3,0,0.5,0.2,0.5,0.5V53
			c0,0.4,0.5,0.6,0.8,0.4C217.2,52.9,217.9,52.6,218.7,52.3z"/>
		<path class="st0" d="M236.1,44.4c0.6-0.6,1.2-0.8,2-0.8c0.8,0,1.5,0.3,2,0.8s0.8,1.2,0.8,2c0,0.8-0.3,1.5-0.8,2.1
			c-0.6,0.6-1.2,0.9-2,0.9c-0.8,0-1.4-0.3-2-0.9c-0.6-0.6-0.9-1.3-0.9-2.1C235.2,45.6,235.5,45,236.1,44.4z M240.5,52.1v23.4
			c0,0.3-0.2,0.5-0.5,0.5h-3.8c-0.3,0-0.5-0.2-0.5-0.5V52.1c0-0.3,0.2-0.5,0.5-0.5h3.8C240.2,51.6,240.5,51.9,240.5,52.1z"/>
	</g>
</g>
</svg>
