<?xml version="1.0" encoding="utf-8"?>
<!-- Generator: Adobe Illustrator 24.0.0, SVG Export Plug-In . SVG Version: 6.00 Build 0)  -->
<svg version="1.1" id="Layer_1" xmlns="http://www.w3.org/2000/svg" xmlns:xlink="http://www.w3.org/1999/xlink" x="0px" y="0px"
	 viewBox="0 0 300 122.68" style="enable-background:new 0 0 300 122.68;" xml:space="preserve">
<style type="text/css">
	.st0{fill:#351C2C;}
	.st1{enable-background:new    ;}
</style>
<g>
	<g>
		<g id="logo_9_">
			<g>
				<path class="st0" d="M115.4,58.54l-5.5,17.52H102l-10.65-31.6h9.62l5.5,18.55l5.84-18.55h6.18l5.84,18.55l5.5-18.55h9.62
					l-10.65,31.6h-7.9L115.4,58.54z"/>
				<path class="st0" d="M140.58,59.97c0-2.31,0.42-4.46,1.26-6.43s1.98-3.7,3.44-5.17c1.45-1.47,3.14-2.63,5.07-3.47
					c1.93-0.84,4-1.26,6.23-1.26c2.22,0,4.3,0.42,6.23,1.26s3.62,2,5.07,3.47c1.45,1.48,2.6,3.2,3.44,5.17
					c0.84,1.97,1.26,4.12,1.26,6.43s-0.42,4.46-1.26,6.43s-1.98,3.7-3.44,5.17c-1.45,1.47-3.14,2.63-5.07,3.47
					c-1.93,0.84-4,1.26-6.23,1.26c-2.22,0-4.3-0.42-6.23-1.26c-1.93-0.84-3.62-2-5.07-3.47c-1.45-1.47-2.6-3.2-3.44-5.17
					C141,64.42,140.58,62.28,140.58,59.97z M163.37,59.97c0-2.4-0.66-4.31-1.97-5.72c-1.32-1.41-2.93-2.11-4.83-2.11
					s-3.52,0.7-4.83,2.11c-1.32,1.41-1.97,3.31-1.97,5.72c0,2.4,0.66,4.31,1.97,5.72s2.93,2.11,4.83,2.11s3.52-0.7,4.83-2.11
					C162.71,64.28,163.37,62.37,163.37,59.97z"/>
				<path class="st0" d="M193.13,44.12c0.41,0,0.79,0.02,1.13,0.07s0.63,0.09,0.85,0.14c0.27,0.05,0.52,0.09,0.75,0.14v9.83
					c-0.27-0.09-0.59-0.2-0.96-0.34c-0.32-0.09-0.68-0.17-1.09-0.24c-0.41-0.07-0.87-0.1-1.37-0.1c-1.73,0-3.13,0.57-4.2,1.7
					c-1.07,1.13-1.6,2.72-1.6,4.76v15.99h-9.22v-31.6h6.83l1.37,3.43c0.55-0.69,1.21-1.3,1.98-1.85c0.64-0.5,1.42-0.95,2.36-1.34
					C190.88,44.31,191.94,44.12,193.13,44.12z"/>
				<path class="st0" d="M216.88,44.12c1.96,0,3.82,0.4,5.6,1.19c1.77,0.79,3.33,1.9,4.68,3.33c1.34,1.43,2.41,3.12,3.21,5.06
					c0.8,1.95,1.19,4.08,1.19,6.39s-0.4,4.44-1.19,6.39c-0.8,1.95-1.87,3.64-3.21,5.06c-1.34,1.43-2.9,2.54-4.68,3.33
					c-1.77,0.79-3.64,1.19-5.6,1.19c-1.18,0-2.26-0.14-3.24-0.41c-0.98-0.27-1.81-0.59-2.49-0.95c-0.82-0.41-1.53-0.86-2.12-1.36
					v13.25h-9.22V44.46h6.83l1.37,3.06c0.68-0.63,1.48-1.2,2.39-1.7c0.77-0.41,1.71-0.79,2.8-1.15
					C214.28,44.3,215.51,44.12,216.88,44.12z M222.23,59.97c0-2.22-0.66-4.03-1.97-5.41c-1.32-1.38-2.93-2.08-4.83-2.08
					c-1.91,0-3.52,0.69-4.83,2.08c-1.32,1.38-1.97,3.19-1.97,5.41s0.66,4.03,1.97,5.41s2.93,2.07,4.83,2.07
					c1.91,0,3.52-0.69,4.83-2.07C221.57,63.99,222.23,62.19,222.23,59.97z"/>
				<path class="st0" d="M245.23,47.21c0.6-0.63,1.31-1.2,2.14-1.7c0.74-0.41,1.67-0.79,2.8-1.15s2.47-0.54,4.04-0.54
					c1.7,0,3.3,0.31,4.8,0.92c1.5,0.61,2.77,1.49,3.83,2.65c1.06,1.15,1.9,2.55,2.52,4.18s0.93,3.46,0.93,5.5V75.4h-9.22V58.73
					c0-2.04-0.55-3.63-1.64-4.76c-1.09-1.13-2.52-1.7-4.29-1.7c-1.77,0-3.2,0.57-4.29,1.7s-1.64,2.72-1.64,4.76V75.4h-9.22V32.61
					h9.22v14.6H245.23z"/>
				<path class="st0" d="M271.9,35.81c0-1.36,0.51-2.55,1.53-3.57s2.21-1.53,3.57-1.53c1.36,0,2.55,0.51,3.57,1.53
					c1.02,1.02,1.53,2.21,1.53,3.57s-0.51,2.55-1.53,3.57s-2.21,1.53-3.57,1.53c-1.36,0-2.55-0.51-3.57-1.53
					C272.41,38.37,271.9,37.17,271.9,35.81z M281.44,76.06h-9.22v-31.6h9.22V76.06z"/>
			</g>
		</g>
		<g id="icone_5_">
			<g class="st1">
				<path class="st0" d="M76.4,63.07c-0.59,1.8-1.21,3.41-1.88,4.83c-0.26,0.55-0.57,1.07-0.85,1.61c-0.85,1.61-1.76,3.17-2.8,4.65
					l0,0l0,0L50.69,104.2H31.72l8.69-25.02h18.97l19.11-28.47l0,0c1.04-1.48,1.95-3.04,2.8-4.65c0.28-0.54,0.59-1.06,0.85-1.61
					L76.4,63.07z"/>
				<path class="st0" d="M55.86,56.52L55.86,56.52c-0.4,0.03-0.79,0.03-1.18,0.05s-0.79,0.05-1.18,0.05c-2.95,0-5.81-0.48-8.59-1.45
					c-2.94-1.02-5.59-2.46-7.99-4.27c-0.48-0.36-0.96-0.72-1.42-1.11c-0.69-0.59-1.34-1.22-1.96-1.87
					c-1.24-1.31-2.35-2.73-3.32-4.28c-0.49-0.78-0.94-1.58-1.36-2.42c-0.63-1.26-1.15-2.56-1.55-3.9c-0.41-1.35-0.7-2.74-0.88-4.18
					c-0.06-0.48-0.11-0.96-0.15-1.45c-0.04-0.49-0.06-0.98-0.07-1.48l0,0l0,0c-0.02-0.89,0.01-1.75,0.06-2.61
					c0.02-0.27,0.05-0.53,0.08-0.8c0.06-0.58,0.12-1.16,0.22-1.73c0.05-0.3,0.11-0.6,0.16-0.89c0.11-0.54-6.9,20.57-6.9,20.57
					c-0.9,2.76-1.31,5.72-1.24,8.88c0.09,4,0.98,7.67,2.66,11.02s3.89,6.2,6.64,8.57c2.74,2.37,5.88,4.16,9.41,5.38
					c1.04,0.36,2.09,0.63,3.15,0.86L55.86,56.52z"/>
				<path class="st0" d="M49.3,20.39c-0.6,0.41-1.17,0.88-1.7,1.42l0,0c-0.32,0.33-0.61,0.67-0.88,1.03
					c-0.07,0.1-0.14,0.2-0.21,0.29c-0.25,0.35-0.48,0.72-0.68,1.1c-0.04,0.07-0.08,0.13-0.11,0.2c-0.22,0.44-0.41,0.89-0.57,1.36
					c-0.45,1.33-0.67,2.8-0.63,4.41c0.08,3.43,1.25,6.22,3.49,8.39c2.24,2.16,4.95,3.24,8.15,3.24c3.2,0,5.87-1.08,8.01-3.24
					c1.26-1.28,2.13-2.78,2.61-4.5c0.04-0.15,0.09-0.29,0.12-0.44c0.05-0.22,0.09-0.44,0.13-0.66c0.03-0.15,0.06-0.29,0.08-0.44
					c0.04-0.25,0.06-0.51,0.08-0.77c0.01-0.13,0.03-0.25,0.04-0.38c0.02-0.39,0.03-0.79,0.02-1.2l0,0
					c-0.08-3.43-1.23-6.22-3.47-8.39c-0.56-0.54-1.15-1.01-1.77-1.42c-0.31-0.2-0.63-0.39-0.95-0.56c-1.63-0.85-3.44-1.27-5.44-1.27
					s-3.79,0.43-5.37,1.27C49.91,20,49.6,20.18,49.3,20.39z"/>
			</g>
		</g>
	</g>
</g>
</svg>
